<svg aria-roledescription="flowchart-v2" role="graphics-document document" viewBox="0.0000152587890625 0 1087.5689697265625 2569.9501953125" height="2569.9501953125" class="flowchart" xmlns="http://www.w3.org/2000/svg" width="1087.5689697265625" id="v-0"><style>#v-0{font-family:"trebuchet ms",verdana,arial,sans-serif;font-size:16px;fill:#333;}@keyframes edge-animation-frame{from{stroke-dashoffset:0;}}@keyframes dash{to{stroke-dashoffset:0;}}#v-0 .edge-animation-slow{stroke-dasharray:9,5!important;stroke-dashoffset:900;animation:dash 50s linear infinite;stroke-linecap:round;}#v-0 .edge-animation-fast{stroke-dasharray:9,5!important;stroke-dashoffset:900;animation:dash 20s linear infinite;stroke-linecap:round;}#v-0 .error-icon{fill:#552222;}#v-0 .error-text{fill:#552222;stroke:#552222;}#v-0 .edge-thickness-normal{stroke-width:1px;}#v-0 .edge-thickness-thick{stroke-width:3.5px;}#v-0 .edge-pattern-solid{stroke-dasharray:0;}#v-0 .edge-thickness-invisible{stroke-width:0;fill:none;}#v-0 .edge-pattern-dashed{stroke-dasharray:3;}#v-0 .edge-pattern-dotted{stroke-dasharray:2;}#v-0 .marker{fill:#333333;stroke:#333333;}#v-0 .marker.cross{stroke:#333333;}#v-0 svg{font-family:"trebuchet ms",verdana,arial,sans-serif;font-size:16px;}#v-0 p{margin:0;}#v-0 .label{font-family:"trebuchet ms",verdana,arial,sans-serif;color:#333;}#v-0 .cluster-label text{fill:#333;}#v-0 .cluster-label span{color:#333;}#v-0 .cluster-label span p{background-color:transparent;}#v-0 .label text,#v-0 span{fill:#333;color:#333;}#v-0 .node rect,#v-0 .node circle,#v-0 .node ellipse,#v-0 .node polygon,#v-0 .node path{fill:#ECECFF;stroke:#9370DB;stroke-width:1px;}#v-0 .rough-node .label text,#v-0 .node .label text,#v-0 .image-shape .label,#v-0 .icon-shape .label{text-anchor:middle;}#v-0 .node .katex path{fill:#000;stroke:#000;stroke-width:1px;}#v-0 .rough-node .label,#v-0 .node .label,#v-0 .image-shape .label,#v-0 .icon-shape .label{text-align:center;}#v-0 .node.clickable{cursor:pointer;}#v-0 .root .anchor path{fill:#333333!important;stroke-width:0;stroke:#333333;}#v-0 .arrowheadPath{fill:#333333;}#v-0 .edgePath .path{stroke:#333333;stroke-width:2.0px;}#v-0 .flowchart-link{stroke:#333333;fill:none;}#v-0 .edgeLabel{background-color:rgba(232,232,232, 0.8);text-align:center;}#v-0 .edgeLabel p{background-color:rgba(232,232,232, 0.8);}#v-0 .edgeLabel rect{opacity:0.5;background-color:rgba(232,232,232, 0.8);fill:rgba(232,232,232, 0.8);}#v-0 .labelBkg{background-color:rgba(232, 232, 232, 0.5);}#v-0 .cluster rect{fill:#ffffde;stroke:#aaaa33;stroke-width:1px;}#v-0 .cluster text{fill:#333;}#v-0 .cluster span{color:#333;}#v-0 div.mermaidTooltip{position:absolute;text-align:center;max-width:200px;padding:2px;font-family:"trebuchet ms",verdana,arial,sans-serif;font-size:12px;background:hsl(80, 100%, 96.2745098039%);border:1px solid #aaaa33;border-radius:2px;pointer-events:none;z-index:100;}#v-0 .flowchartTitleText{text-anchor:middle;font-size:18px;fill:#333;}#v-0 rect.text{fill:none;stroke-width:0;}#v-0 .icon-shape,#v-0 .image-shape{background-color:rgba(232,232,232, 0.8);text-align:center;}#v-0 .icon-shape p,#v-0 .image-shape p{background-color:rgba(232,232,232, 0.8);padding:2px;}#v-0 .icon-shape rect,#v-0 .image-shape rect{opacity:0.5;background-color:rgba(232,232,232, 0.8);fill:rgba(232,232,232, 0.8);}#v-0 .label-icon{display:inline-block;height:1em;overflow:visible;vertical-align:-0.125em;}#v-0 .node .label-icon path{fill:currentColor;stroke:revert;stroke-width:revert;}#v-0 :root{--mermaid-font-family:"trebuchet ms",verdana,arial,sans-serif;}</style><g><marker orient="auto" markerHeight="8" markerWidth="8" markerUnits="userSpaceOnUse" refY="5" refX="5" viewBox="0 0 10 10" class="marker flowchart-v2" id="v-0_flowchart-v2-pointEnd"><path style="stroke-width: 1; stroke-dasharray: 1, 0;" class="arrowMarkerPath" d="M 0 0 L 10 5 L 0 10 z"></path></marker><marker orient="auto" markerHeight="8" markerWidth="8" markerUnits="userSpaceOnUse" refY="5" refX="4.5" viewBox="0 0 10 10" class="marker flowchart-v2" id="v-0_flowchart-v2-pointStart"><path style="stroke-width: 1; stroke-dasharray: 1, 0;" class="arrowMarkerPath" d="M 0 5 L 10 10 L 10 0 z"></path></marker><marker orient="auto" markerHeight="11" markerWidth="11" markerUnits="userSpaceOnUse" refY="5" refX="11" viewBox="0 0 10 10" class="marker flowchart-v2" id="v-0_flowchart-v2-circleEnd"><circle style="stroke-width: 1; stroke-dasharray: 1, 0;" class="arrowMarkerPath" r="5" cy="5" cx="5"></circle></marker><marker orient="auto" markerHeight="11" markerWidth="11" markerUnits="userSpaceOnUse" refY="5" refX="-1" viewBox="0 0 10 10" class="marker flowchart-v2" id="v-0_flowchart-v2-circleStart"><circle style="stroke-width: 1; stroke-dasharray: 1, 0;" class="arrowMarkerPath" r="5" cy="5" cx="5"></circle></marker><marker orient="auto" markerHeight="11" markerWidth="11" markerUnits="userSpaceOnUse" refY="5.2" refX="12" viewBox="0 0 11 11" class="marker cross flowchart-v2" id="v-0_flowchart-v2-crossEnd"><path style="stroke-width: 2; stroke-dasharray: 1, 0;" class="arrowMarkerPath" d="M 1,1 l 9,9 M 10,1 l -9,9"></path></marker><marker orient="auto" markerHeight="11" markerWidth="11" markerUnits="userSpaceOnUse" refY="5.2" refX="-1" viewBox="0 0 11 11" class="marker cross flowchart-v2" id="v-0_flowchart-v2-crossStart"><path style="stroke-width: 2; stroke-dasharray: 1, 0;" class="arrowMarkerPath" d="M 1,1 l 9,9 M 10,1 l -9,9"></path></marker><g class="root"><g class="clusters"></g><g class="edgePaths"><path marker-end="url(#v-0_flowchart-v2-pointEnd)" style="" class="edge-thickness-normal edge-pattern-solid edge-thickness-normal edge-pattern-solid flowchart-link" id="L_A_B_0" d="M636.947,63.6L636.947,67.767C636.947,71.933,636.947,80.267,636.947,87.933C636.947,95.6,636.947,102.6,636.947,106.1L636.947,109.6"></path><path marker-end="url(#v-0_flowchart-v2-pointEnd)" style="" class="edge-thickness-normal edge-pattern-solid edge-thickness-normal edge-pattern-solid flowchart-link" id="L_B_C_0" d="M590.233,169.2L583.232,173.367C576.231,177.533,562.228,185.867,555.297,193.617C548.366,201.367,548.506,208.534,548.576,212.117L548.647,215.701"></path><path marker-end="url(#v-0_flowchart-v2-pointEnd)" style="" class="edge-thickness-normal edge-pattern-solid edge-thickness-normal edge-pattern-solid flowchart-link" id="L_C_D_0" d="M548.725,443.412L548.642,447.496C548.558,451.579,548.392,459.746,548.308,467.329C548.225,474.913,548.225,481.913,548.225,485.413L548.225,488.913"></path><path marker-end="url(#v-0_flowchart-v2-pointEnd)" style="" class="edge-thickness-normal edge-pattern-solid edge-thickness-normal edge-pattern-solid flowchart-link" id="L_D_E_0" d="M477.427,548.513L466.816,552.679C456.204,556.846,434.982,565.179,424.371,572.846C413.759,580.513,413.759,587.513,413.759,591.013L413.759,594.513"></path><path marker-end="url(#v-0_flowchart-v2-pointEnd)" style="" class="edge-thickness-normal edge-pattern-solid edge-thickness-normal edge-pattern-solid flowchart-link" id="L_D_F_0" d="M626.225,531.77L675.298,538.727C724.371,545.684,822.517,559.598,871.59,570.055C920.662,580.513,920.662,587.513,920.662,591.013L920.662,594.513"></path><path marker-end="url(#v-0_flowchart-v2-pointEnd)" style="" class="edge-thickness-normal edge-pattern-solid edge-thickness-normal edge-pattern-solid flowchart-link" id="L_E_G_0" d="M413.759,679.713L413.759,683.879C413.759,688.046,413.759,696.379,413.759,704.046C413.759,711.713,413.759,718.713,413.759,722.213L413.759,725.713"></path><path marker-end="url(#v-0_flowchart-v2-pointEnd)" style="" class="edge-thickness-normal edge-pattern-solid edge-thickness-normal edge-pattern-solid flowchart-link" id="L_G_H_0" d="M413.759,810.912L413.759,815.079C413.759,819.246,413.759,827.579,413.759,835.246C413.759,842.912,413.759,849.912,413.759,853.412L413.759,856.912"></path><path marker-end="url(#v-0_flowchart-v2-pointEnd)" style="" class="edge-thickness-normal edge-pattern-solid edge-thickness-normal edge-pattern-solid flowchart-link" id="L_H_I_0" d="M413.759,942.112L413.759,946.279C413.759,950.446,413.759,958.779,413.759,966.446C413.759,974.112,413.759,981.112,413.759,984.612L413.759,988.112"></path><path marker-end="url(#v-0_flowchart-v2-pointEnd)" style="" class="edge-thickness-normal edge-pattern-solid edge-thickness-normal edge-pattern-solid flowchart-link" id="L_I_J_0" d="M413.759,1073.312L413.759,1077.479C413.759,1081.646,413.759,1089.979,413.759,1097.646C413.759,1105.312,413.759,1112.312,413.759,1115.812L413.759,1119.312"></path><path marker-end="url(#v-0_flowchart-v2-pointEnd)" style="" class="edge-thickness-normal edge-pattern-solid edge-thickness-normal edge-pattern-solid flowchart-link" id="L_J_K_0" d="M370.142,1204.512L365.666,1208.679C361.19,1212.846,352.237,1221.179,347.831,1228.929C343.425,1236.679,343.565,1243.846,343.636,1247.43L343.706,1251.013"></path><path marker-end="url(#v-0_flowchart-v2-pointEnd)" style="" class="edge-thickness-normal edge-pattern-solid edge-thickness-normal edge-pattern-solid flowchart-link" id="L_K_L_0" d="M343.784,1440.3L343.701,1444.383C343.618,1448.467,343.451,1456.633,343.438,1464.3C343.425,1471.967,343.565,1479.134,343.636,1482.717L343.706,1486.301"></path><path marker-end="url(#v-0_flowchart-v2-pointEnd)" style="" class="edge-thickness-normal edge-pattern-solid edge-thickness-normal edge-pattern-solid flowchart-link" id="L_L_M_0" d="M306.251,1626.241L296.59,1638.714C286.929,1651.186,267.606,1676.13,257.945,1694.236C248.284,1712.342,248.284,1723.608,248.284,1729.242L248.284,1734.875"></path><path marker-end="url(#v-0_flowchart-v2-pointEnd)" style="" class="edge-thickness-normal edge-pattern-solid edge-thickness-normal edge-pattern-solid flowchart-link" id="L_L_N_0" d="M401.919,1605.641L434.332,1621.546C466.746,1637.452,531.573,1669.264,563.986,1698.236C596.4,1727.208,596.4,1753.342,596.4,1779.475C596.4,1805.608,596.4,1831.742,596.4,1862.898C596.4,1894.054,596.4,1930.233,596.4,1966.413C596.4,2002.592,596.4,2038.771,596.4,2064.627C596.4,2090.483,596.4,2106.017,596.4,2113.783L596.4,2121.55"></path><path marker-end="url(#v-0_flowchart-v2-pointEnd)" style="" class="edge-thickness-normal edge-pattern-solid edge-thickness-normal edge-pattern-solid flowchart-link" id="L_M_O_0" d="M248.284,1820.075L248.284,1826.375C248.284,1832.675,248.284,1845.275,248.359,1857.292C248.434,1869.308,248.583,1880.742,248.658,1886.459L248.732,1892.175"></path><path marker-end="url(#v-0_flowchart-v2-pointEnd)" style="" class="edge-thickness-normal edge-pattern-solid edge-thickness-normal edge-pattern-solid flowchart-link" id="L_O_P_0" d="M215.123,2003.989L204.227,2015.816C193.33,2027.642,171.537,2051.296,160.64,2068.756C149.744,2086.217,149.744,2097.483,149.744,2103.117L149.744,2108.75"></path><path marker-end="url(#v-0_flowchart-v2-pointEnd)" style="" class="edge-thickness-normal edge-pattern-solid edge-thickness-normal edge-pattern-solid flowchart-link" id="L_O_Q_0" d="M290.729,1995.705L310.008,2008.913C329.286,2022.12,367.843,2048.535,387.122,2069.509C406.4,2090.483,406.4,2106.017,406.4,2113.783L406.4,2121.55"></path><path marker-end="url(#v-0_flowchart-v2-pointEnd)" style="" class="edge-thickness-normal edge-pattern-solid edge-thickness-normal edge-pattern-solid flowchart-link" id="L_P_R_0" d="M149.744,2193.95L149.744,2198.117C149.744,2202.283,149.744,2210.617,149.744,2218.283C149.744,2225.95,149.744,2232.95,149.744,2236.45L149.744,2239.95"></path><path marker-end="url(#v-0_flowchart-v2-pointEnd)" style="" class="edge-thickness-normal edge-pattern-solid edge-thickness-normal edge-pattern-solid flowchart-link" id="L_R_S_0" d="M149.744,2325.15L149.744,2329.317C149.744,2333.483,149.744,2341.817,152.201,2349.599C154.658,2357.381,159.571,2364.611,162.028,2368.226L164.485,2371.842"></path><path marker-end="url(#v-0_flowchart-v2-pointEnd)" style="" class="edge-thickness-normal edge-pattern-dotted edge-thickness-normal edge-pattern-solid flowchart-link" id="L_S_J_0" d="M280.325,2405.086L354.167,2395.93C428.008,2386.774,575.692,2368.462,649.533,2348.373C723.375,2328.283,723.375,2306.417,723.375,2284.55C723.375,2262.683,723.375,2240.817,723.375,2218.95C723.375,2197.083,723.375,2175.217,723.375,2151.217C723.375,2127.217,723.375,2101.083,723.375,2069.927C723.375,2038.771,723.375,2002.592,723.375,1966.413C723.375,1930.233,723.375,1894.054,723.375,1862.898C723.375,1831.742,723.375,1805.608,723.375,1779.475C723.375,1753.342,723.375,1727.208,723.375,1693.385C723.375,1659.563,723.375,1618.05,723.375,1578.671C723.375,1539.292,723.375,1502.046,723.375,1463.816C723.375,1425.585,723.375,1386.371,723.375,1347.156C723.375,1307.942,723.375,1268.727,685.291,1241.051C647.207,1213.374,571.04,1197.236,532.956,1189.167L494.872,1181.098"></path><path marker-end="url(#v-0_flowchart-v2-pointEnd)" style="" class="edge-thickness-normal edge-pattern-solid edge-thickness-normal edge-pattern-solid flowchart-link" id="L_N_T_0" d="M596.4,2181.15L596.4,2187.45C596.4,2193.75,596.4,2206.35,590.342,2216.462C584.283,2226.573,572.166,2234.197,566.108,2238.008L560.049,2241.82"></path><path marker-end="url(#v-0_flowchart-v2-pointEnd)" style="" class="edge-thickness-normal edge-pattern-solid edge-thickness-normal edge-pattern-solid flowchart-link" id="L_Q_T_0" d="M406.4,2181.15L406.4,2187.45C406.4,2193.75,406.4,2206.35,411.316,2216.412C416.232,2226.473,426.064,2233.996,430.979,2237.758L435.895,2241.519"></path><path marker-end="url(#v-0_flowchart-v2-pointEnd)" style="" class="edge-thickness-normal edge-pattern-solid edge-thickness-normal edge-pattern-solid flowchart-link" id="L_T_U_0" d="M492.131,2325.15L492.131,2329.317C492.131,2333.483,492.131,2341.817,492.627,2349.49C493.122,2357.163,494.113,2364.176,494.608,2367.683L495.104,2371.189"></path><path marker-end="url(#v-0_flowchart-v2-pointEnd)" style="" class="edge-thickness-normal edge-pattern-solid edge-thickness-normal edge-pattern-solid flowchart-link" id="L_U_V_0" d="M501.4,2456.35L501.4,2460.517C501.4,2464.683,501.4,2473.017,533.81,2483.201C566.22,2493.384,631.041,2505.419,663.451,2511.436L695.861,2517.453"></path><path marker-end="url(#v-0_flowchart-v2-pointEnd)" style="" class="edge-thickness-normal edge-pattern-solid edge-thickness-normal edge-pattern-solid flowchart-link" id="L_V_B_0" d="M871.794,2518.693L906.423,2512.469C941.052,2506.246,1010.31,2493.798,1044.94,2476.641C1079.569,2459.483,1079.569,2437.617,1079.569,2415.75C1079.569,2393.883,1079.569,2372.017,1079.569,2350.15C1079.569,2328.283,1079.569,2306.417,1079.569,2284.55C1079.569,2262.683,1079.569,2240.817,1079.569,2218.95C1079.569,2197.083,1079.569,2175.217,1079.569,2151.217C1079.569,2127.217,1079.569,2101.083,1079.569,2069.927C1079.569,2038.771,1079.569,2002.592,1079.569,1966.413C1079.569,1930.233,1079.569,1894.054,1079.569,1862.898C1079.569,1831.742,1079.569,1805.608,1079.569,1779.475C1079.569,1753.342,1079.569,1727.208,1079.569,1693.385C1079.569,1659.563,1079.569,1618.05,1079.569,1578.671C1079.569,1539.292,1079.569,1502.046,1079.569,1463.816C1079.569,1425.585,1079.569,1386.371,1079.569,1347.156C1079.569,1307.942,1079.569,1268.727,1079.569,1238.186C1079.569,1207.646,1079.569,1185.779,1079.569,1163.912C1079.569,1142.046,1079.569,1120.179,1079.569,1098.312C1079.569,1076.446,1079.569,1054.579,1079.569,1032.712C1079.569,1010.846,1079.569,988.979,1079.569,967.112C1079.569,945.246,1079.569,923.379,1079.569,901.512C1079.569,879.646,1079.569,857.779,1079.569,835.912C1079.569,814.046,1079.569,792.179,1079.569,770.313C1079.569,748.446,1079.569,726.579,1079.569,704.713C1079.569,682.846,1079.569,660.979,1079.569,639.113C1079.569,617.246,1079.569,595.379,1079.569,575.646C1079.569,555.913,1079.569,538.313,1079.569,520.713C1079.569,503.113,1079.569,485.513,1079.569,453.903C1079.569,422.294,1079.569,376.675,1079.569,331.056C1079.569,285.438,1079.569,239.819,1019.46,209.839C959.352,179.859,839.135,165.519,779.027,158.349L718.919,151.178"></path><path marker-end="url(#v-0_flowchart-v2-pointEnd)" style="" class="edge-thickness-normal edge-pattern-solid edge-thickness-normal edge-pattern-solid flowchart-link" id="L_F_W_0" d="M920.662,679.713L920.662,683.879C920.662,688.046,920.662,696.379,920.662,704.046C920.662,711.713,920.662,718.713,920.662,722.213L920.662,725.713"></path><path marker-end="url(#v-0_flowchart-v2-pointEnd)" style="" class="edge-thickness-normal edge-pattern-solid edge-thickness-normal edge-pattern-solid flowchart-link" id="L_W_X_0" d="M920.662,810.912L920.662,815.079C920.662,819.246,920.662,827.579,920.662,835.246C920.662,842.912,920.662,849.912,920.662,853.412L920.662,856.912"></path><path marker-end="url(#v-0_flowchart-v2-pointEnd)" style="" class="edge-thickness-normal edge-pattern-solid edge-thickness-normal edge-pattern-solid flowchart-link" id="L_X_Y_0" d="M920.662,942.112L920.662,946.279C920.662,950.446,920.662,958.779,920.662,968.579C920.662,978.379,920.662,989.646,920.662,995.279L920.662,1000.912"></path><path marker-end="url(#v-0_flowchart-v2-pointEnd)" style="" class="edge-thickness-normal edge-pattern-solid edge-thickness-normal edge-pattern-solid flowchart-link" id="L_Y_Z_0" d="M920.662,1060.512L920.662,1066.812C920.662,1073.112,920.662,1085.712,920.662,1097.646C920.662,1109.579,920.662,1120.846,920.662,1126.479L920.662,1132.112"></path><path marker-end="url(#v-0_flowchart-v2-pointEnd)" style="" class="edge-thickness-normal edge-pattern-solid edge-thickness-normal edge-pattern-solid flowchart-link" id="L_Z_AA_0" d="M920.662,1191.712L920.662,1198.012C920.662,1204.312,920.662,1216.912,920.662,1237.52C920.662,1258.127,920.662,1286.742,920.662,1301.049L920.662,1315.356"></path><path marker-end="url(#v-0_flowchart-v2-pointEnd)" style="" class="edge-thickness-normal edge-pattern-solid edge-thickness-normal edge-pattern-solid flowchart-link" id="L_AA_AB_0" d="M920.662,1374.956L920.662,1389.93C920.662,1404.904,920.662,1434.852,920.662,1461.016C920.662,1487.179,920.662,1509.558,920.662,1520.748L920.662,1531.938"></path></g><g class="edgeLabels"><g class="edgeLabel"><g transform="translate(0, 0)" class="label"><foreignObject height="0" width="0"><div style="display: table-cell; white-space: nowrap; line-height: 1.5; max-width: 200px; text-align: center;" class="labelBkg" xmlns="http://www.w3.org/1999/xhtml"><span class="edgeLabel"></span></div></foreignObject></g></g><g class="edgeLabel"><g transform="translate(0, 0)" class="label"><foreignObject height="0" width="0"><div style="display: table-cell; white-space: nowrap; line-height: 1.5; max-width: 200px; text-align: center;" class="labelBkg" xmlns="http://www.w3.org/1999/xhtml"><span class="edgeLabel"></span></div></foreignObject></g></g><g class="edgeLabel"><g transform="translate(0, 0)" class="label"><foreignObject height="0" width="0"><div style="display: table-cell; white-space: nowrap; line-height: 1.5; max-width: 200px; text-align: center;" class="labelBkg" xmlns="http://www.w3.org/1999/xhtml"><span class="edgeLabel"></span></div></foreignObject></g></g><g class="edgeLabel"><g transform="translate(0, 0)" class="label"><foreignObject height="0" width="0"><div style="display: table-cell; white-space: nowrap; line-height: 1.5; max-width: 200px; text-align: center;" class="labelBkg" xmlns="http://www.w3.org/1999/xhtml"><span class="edgeLabel"></span></div></foreignObject></g></g><g class="edgeLabel"><g transform="translate(0, 0)" class="label"><foreignObject height="0" width="0"><div style="display: table-cell; white-space: nowrap; line-height: 1.5; max-width: 200px; text-align: center;" class="labelBkg" xmlns="http://www.w3.org/1999/xhtml"><span class="edgeLabel"></span></div></foreignObject></g></g><g class="edgeLabel"><g transform="translate(0, 0)" class="label"><foreignObject height="0" width="0"><div style="display: table-cell; white-space: nowrap; line-height: 1.5; max-width: 200px; text-align: center;" class="labelBkg" xmlns="http://www.w3.org/1999/xhtml"><span class="edgeLabel"></span></div></foreignObject></g></g><g class="edgeLabel"><g transform="translate(0, 0)" class="label"><foreignObject height="0" width="0"><div style="display: table-cell; white-space: nowrap; line-height: 1.5; max-width: 200px; text-align: center;" class="labelBkg" xmlns="http://www.w3.org/1999/xhtml"><span class="edgeLabel"></span></div></foreignObject></g></g><g class="edgeLabel"><g transform="translate(0, 0)" class="label"><foreignObject height="0" width="0"><div style="display: table-cell; white-space: nowrap; line-height: 1.5; max-width: 200px; text-align: center;" class="labelBkg" xmlns="http://www.w3.org/1999/xhtml"><span class="edgeLabel"></span></div></foreignObject></g></g><g class="edgeLabel"><g transform="translate(0, 0)" class="label"><foreignObject height="0" width="0"><div style="display: table-cell; white-space: nowrap; line-height: 1.5; max-width: 200px; text-align: center;" class="labelBkg" xmlns="http://www.w3.org/1999/xhtml"><span class="edgeLabel"></span></div></foreignObject></g></g><g class="edgeLabel"><g transform="translate(0, 0)" class="label"><foreignObject height="0" width="0"><div style="display: table-cell; white-space: nowrap; line-height: 1.5; max-width: 200px; text-align: center;" class="labelBkg" xmlns="http://www.w3.org/1999/xhtml"><span class="edgeLabel"></span></div></foreignObject></g></g><g class="edgeLabel"><g transform="translate(0, 0)" class="label"><foreignObject height="0" width="0"><div style="display: table-cell; white-space: nowrap; line-height: 1.5; max-width: 200px; text-align: center;" class="labelBkg" xmlns="http://www.w3.org/1999/xhtml"><span class="edgeLabel"></span></div></foreignObject></g></g><g transform="translate(248.28436660766602, 1701.0750017166138)" class="edgeLabel"><g transform="translate(-8, -12.800000190734863)" class="label"><foreignObject height="25.600000381469727" width="16"><div style="display: table-cell; white-space: nowrap; line-height: 1.5; max-width: 200px; text-align: center;" class="labelBkg" xmlns="http://www.w3.org/1999/xhtml"><span class="edgeLabel"><p>是</p></span></div></foreignObject></g></g><g transform="translate(596.3999900817871, 1857.8749990463257)" class="edgeLabel"><g transform="translate(-8, -12.800000190734863)" class="label"><foreignObject height="25.600000381469727" width="16"><div style="display: table-cell; white-space: nowrap; line-height: 1.5; max-width: 200px; text-align: center;" class="labelBkg" xmlns="http://www.w3.org/1999/xhtml"><span class="edgeLabel"><p>否</p></span></div></foreignObject></g></g><g class="edgeLabel"><g transform="translate(0, 0)" class="label"><foreignObject height="0" width="0"><div style="display: table-cell; white-space: nowrap; line-height: 1.5; max-width: 200px; text-align: center;" class="labelBkg" xmlns="http://www.w3.org/1999/xhtml"><span class="edgeLabel"></span></div></foreignObject></g></g><g transform="translate(149.74374389648438, 2074.950005531311)" class="edgeLabel"><g transform="translate(-8, -12.800000190734863)" class="label"><foreignObject height="25.600000381469727" width="16"><div style="display: table-cell; white-space: nowrap; line-height: 1.5; max-width: 200px; text-align: center;" class="labelBkg" xmlns="http://www.w3.org/1999/xhtml"><span class="edgeLabel"><p>是</p></span></div></foreignObject></g></g><g transform="translate(406.3999900817871, 2074.950005531311)" class="edgeLabel"><g transform="translate(-8, -12.800000190734863)" class="label"><foreignObject height="25.600000381469727" width="16"><div style="display: table-cell; white-space: nowrap; line-height: 1.5; max-width: 200px; text-align: center;" class="labelBkg" xmlns="http://www.w3.org/1999/xhtml"><span class="edgeLabel"><p>否</p></span></div></foreignObject></g></g><g class="edgeLabel"><g transform="translate(0, 0)" class="label"><foreignObject height="0" width="0"><div style="display: table-cell; white-space: nowrap; line-height: 1.5; max-width: 200px; text-align: center;" class="labelBkg" xmlns="http://www.w3.org/1999/xhtml"><span class="edgeLabel"></span></div></foreignObject></g></g><g class="edgeLabel"><g transform="translate(0, 0)" class="label"><foreignObject height="0" width="0"><div style="display: table-cell; white-space: nowrap; line-height: 1.5; max-width: 200px; text-align: center;" class="labelBkg" xmlns="http://www.w3.org/1999/xhtml"><span class="edgeLabel"></span></div></foreignObject></g></g><g class="edgeLabel"><g transform="translate(0, 0)" class="label"><foreignObject height="0" width="0"><div style="display: table-cell; white-space: nowrap; line-height: 1.5; max-width: 200px; text-align: center;" class="labelBkg" xmlns="http://www.w3.org/1999/xhtml"><span class="edgeLabel"></span></div></foreignObject></g></g><g class="edgeLabel"><g transform="translate(0, 0)" class="label"><foreignObject height="0" width="0"><div style="display: table-cell; white-space: nowrap; line-height: 1.5; max-width: 200px; text-align: center;" class="labelBkg" xmlns="http://www.w3.org/1999/xhtml"><span class="edgeLabel"></span></div></foreignObject></g></g><g class="edgeLabel"><g transform="translate(0, 0)" class="label"><foreignObject height="0" width="0"><div style="display: table-cell; white-space: nowrap; line-height: 1.5; max-width: 200px; text-align: center;" class="labelBkg" xmlns="http://www.w3.org/1999/xhtml"><span class="edgeLabel"></span></div></foreignObject></g></g><g class="edgeLabel"><g transform="translate(0, 0)" class="label"><foreignObject height="0" width="0"><div style="display: table-cell; white-space: nowrap; line-height: 1.5; max-width: 200px; text-align: center;" class="labelBkg" xmlns="http://www.w3.org/1999/xhtml"><span class="edgeLabel"></span></div></foreignObject></g></g><g class="edgeLabel"><g transform="translate(0, 0)" class="label"><foreignObject height="0" width="0"><div style="display: table-cell; white-space: nowrap; line-height: 1.5; max-width: 200px; text-align: center;" class="labelBkg" xmlns="http://www.w3.org/1999/xhtml"><span class="edgeLabel"></span></div></foreignObject></g></g><g class="edgeLabel"><g transform="translate(0, 0)" class="label"><foreignObject height="0" width="0"><div style="display: table-cell; white-space: nowrap; line-height: 1.5; max-width: 200px; text-align: center;" class="labelBkg" xmlns="http://www.w3.org/1999/xhtml"><span class="edgeLabel"></span></div></foreignObject></g></g><g class="edgeLabel"><g transform="translate(0, 0)" class="label"><foreignObject height="0" width="0"><div style="display: table-cell; white-space: nowrap; line-height: 1.5; max-width: 200px; text-align: center;" class="labelBkg" xmlns="http://www.w3.org/1999/xhtml"><span class="edgeLabel"></span></div></foreignObject></g></g><g class="edgeLabel"><g transform="translate(0, 0)" class="label"><foreignObject height="0" width="0"><div style="display: table-cell; white-space: nowrap; line-height: 1.5; max-width: 200px; text-align: center;" class="labelBkg" xmlns="http://www.w3.org/1999/xhtml"><span class="edgeLabel"></span></div></foreignObject></g></g><g class="edgeLabel"><g transform="translate(0, 0)" class="label"><foreignObject height="0" width="0"><div style="display: table-cell; white-space: nowrap; line-height: 1.5; max-width: 200px; text-align: center;" class="labelBkg" xmlns="http://www.w3.org/1999/xhtml"><span class="edgeLabel"></span></div></foreignObject></g></g><g class="edgeLabel"><g transform="translate(0, 0)" class="label"><foreignObject height="0" width="0"><div style="display: table-cell; white-space: nowrap; line-height: 1.5; max-width: 200px; text-align: center;" class="labelBkg" xmlns="http://www.w3.org/1999/xhtml"><span class="edgeLabel"></span></div></foreignObject></g></g><g class="edgeLabel"><g transform="translate(0, 0)" class="label"><foreignObject height="0" width="0"><div style="display: table-cell; white-space: nowrap; line-height: 1.5; max-width: 200px; text-align: center;" class="labelBkg" xmlns="http://www.w3.org/1999/xhtml"><span class="edgeLabel"></span></div></foreignObject></g></g><g class="edgeLabel"><g transform="translate(0, 0)" class="label"><foreignObject height="0" width="0"><div style="display: table-cell; white-space: nowrap; line-height: 1.5; max-width: 200px; text-align: center;" class="labelBkg" xmlns="http://www.w3.org/1999/xhtml"><span class="edgeLabel"></span></div></foreignObject></g></g></g><g class="nodes"><g transform="translate(636.9468650817871, 35.79999923706055)" id="flowchart-A-0" class="node default"><rect height="55.60000038146973" width="92" y="-27.800000190734863" x="-46" style="" class="basic label-container"></rect><g transform="translate(-16, -12.800000190734863)" style="" class="label"><rect></rect><foreignObject height="25.600000381469727" width="32"><div style="display: table-cell; white-space: nowrap; line-height: 1.5; max-width: 200px; text-align: center;" xmlns="http://www.w3.org/1999/xhtml"><span class="nodeLabel"><p>开始</p></span></div></foreignObject></g></g><g transform="translate(636.9468650817871, 141.39999771118164)" id="flowchart-B-1" class="node default"><rect height="55.60000038146973" width="156" y="-27.800000190734863" x="-78" style="" class="basic label-container"></rect><g transform="translate(-48, -12.800000190734863)" style="" class="label"><rect></rect><foreignObject height="25.600000381469727" width="96"><div style="display: table-cell; white-space: nowrap; line-height: 1.5; max-width: 200px; text-align: center;" xmlns="http://www.w3.org/1999/xhtml"><span class="nodeLabel"><p>消息队列等待</p></span></div></foreignObject></g></g><g transform="translate(548.2249870300293, 331.0562515258789)" id="flowchart-C-3" class="node default"><polygon transform="translate(-111.35625171661377, 111.85625171661377)" class="label-container" points="111.85625171661377,0 223.71250343322754,-111.85625171661377 111.85625171661377,-223.71250343322754 0,-111.85625171661377"></polygon><g transform="translate(-84.0562515258789, -12.800000190734863)" style="" class="label"><rect></rect><foreignObject height="25.600000381469727" width="168.1125030517578"><div style="display: table-cell; white-space: nowrap; line-height: 1.5; max-width: 200px; text-align: center;" xmlns="http://www.w3.org/1999/xhtml"><span class="nodeLabel"><p>接收到 InboundMessage</p></span></div></foreignObject></g></g><g transform="translate(548.2249870300293, 520.7125053405762)" id="flowchart-D-5" class="node default"><rect height="55.60000038146973" width="156" y="-27.800000190734863" x="-78" style="" class="basic label-container"></rect><g transform="translate(-48, -12.800000190734863)" style="" class="label"><rect></rect><foreignObject height="25.600000381469727" width="96"><div style="display: table-cell; white-space: nowrap; line-height: 1.5; max-width: 200px; text-align: center;" xmlns="http://www.w3.org/1999/xhtml"><span class="nodeLabel"><p>判断消息类型</p></span></div></foreignObject></g></g><g transform="translate(413.7593650817871, 639.1125030517578)" id="flowchart-E-7" class="node default"><rect height="81.20000076293945" width="194.21250915527344" y="-40.60000038146973" x="-97.10625457763672" style="fill:#e1f5ff !important" class="basic label-container"></rect><g transform="translate(-67.10625457763672, -25.600000381469727)" style="" class="label"><rect></rect><foreignObject height="51.20000076293945" width="134.21250915527344"><div style="display: table-cell; white-space: nowrap; line-height: 1.5; max-width: 200px; text-align: center;" xmlns="http://www.w3.org/1999/xhtml"><span class="nodeLabel"><p>用户消息<br />channel != 'system'</p></span></div></foreignObject></g></g><g transform="translate(920.6624870300293, 639.1125030517578)" id="flowchart-F-9" class="node default"><rect height="81.20000076293945" width="196.7375030517578" y="-40.60000038146973" x="-98.3687515258789" style="fill:#fca5a5 !important" class="basic label-container"></rect><g transform="translate(-68.3687515258789, -25.600000381469727)" style="" class="label"><rect></rect><foreignObject height="51.20000076293945" width="136.7375030517578"><div style="display: table-cell; white-space: nowrap; line-height: 1.5; max-width: 200px; text-align: center;" xmlns="http://www.w3.org/1999/xhtml"><span class="nodeLabel"><p>系统消息<br />channel == 'system'</p></span></div></foreignObject></g></g><g transform="translate(413.7593650817871, 770.3125)" id="flowchart-G-11" class="node default"><rect height="81.20000076293945" width="171.1500015258789" y="-40.60000038146973" x="-85.57500076293945" style="fill:#e91e63 !important" class="basic label-container"></rect><g transform="translate(-55.57500076293945, -25.600000381469727)" style="" class="label"><rect></rect><foreignObject height="51.20000076293945" width="111.1500015258789"><div style="display: table-cell; white-space: nowrap; line-height: 1.5; max-width: 200px; text-align: center;" xmlns="http://www.w3.org/1999/xhtml"><span class="nodeLabel"><p>获取/创建会话<br />SessionManager</p></span></div></foreignObject></g></g><g transform="translate(413.7593650817871, 901.5124969482422)" id="flowchart-H-13" class="node default"><rect height="81.20000076293945" width="212.8249969482422" y="-40.60000038146973" x="-106.4124984741211" style="fill:#0ea5e9 !important" class="basic label-container"></rect><g transform="translate(-76.4124984741211, -25.600000381469727)" style="" class="label"><rect></rect><foreignObject height="51.20000076293945" width="152.8249969482422"><div style="display: table-cell; white-space: nowrap; line-height: 1.5; max-width: 200px; text-align: center;" xmlns="http://www.w3.org/1999/xhtml"><span class="nodeLabel"><p>更新工具上下文<br />message/spawn/cron</p></span></div></foreignObject></g></g><g transform="translate(413.7593650817871, 1032.7124938964844)" id="flowchart-I-15" class="node default"><rect height="81.20000076293945" width="281.8625030517578" y="-40.60000038146973" x="-140.9312515258789" style="fill:#e0a2df !important" class="basic label-container"></rect><g transform="translate(-110.9312515258789, -25.600000381469727)" style="" class="label"><rect></rect><foreignObject height="51.20000076293945" width="221.8625030517578"><div style="display: table; white-space: break-spaces; line-height: 1.5; max-width: 200px; text-align: center; width: 200px;" xmlns="http://www.w3.org/1999/xhtml"><span class="nodeLabel"><p>构建上下文<br />ContextBuilder.build_messages</p></span></div></foreignObject></g></g><g transform="translate(413.7593650817871, 1163.9124908447266)" id="flowchart-J-17" class="node default"><rect height="81.20000076293945" width="154.4000015258789" y="-40.60000038146973" x="-77.20000076293945" style="fill:#4dabf7 !important" class="basic label-container"></rect><g transform="translate(-47.20000076293945, -25.600000381469727)" style="" class="label"><rect></rect><foreignObject height="51.20000076293945" width="94.4000015258789"><div style="display: table-cell; white-space: nowrap; line-height: 1.5; max-width: 200px; text-align: center;" xmlns="http://www.w3.org/1999/xhtml"><span class="nodeLabel"><p>调用 LLM<br />Provider.chat</p></span></div></foreignObject></g></g><g transform="translate(343.284366607666, 1347.1562423706055)" id="flowchart-K-19" class="node default"><polygon style="fill:#ff9800 !important" transform="translate(-92.14375019073486, 92.64375019073486)" class="label-container" points="92.64375019073486,0 185.28750038146973,-92.64375019073486 92.64375019073486,-185.28750038146973 0,-92.64375019073486"></polygon><g transform="translate(-64.84375, -12.800000190734863)" style="" class="label"><rect></rect><foreignObject height="25.600000381469727" width="129.6875"><div style="display: table-cell; white-space: nowrap; line-height: 1.5; max-width: 200px; text-align: center;" xmlns="http://www.w3.org/1999/xhtml"><span class="nodeLabel"><p>返回 LLMResponse</p></span></div></foreignObject></g></g><g transform="translate(343.284366607666, 1576.537498474121)" id="flowchart-L-21" class="node default"><polygon transform="translate(-86.23750019073486, 86.73750019073486)" class="label-container" points="86.73750019073486,0 173.47500038146973,-86.73750019073486 86.73750019073486,-173.47500038146973 0,-86.73750019073486"></polygon><g transform="translate(-58.9375, -12.800000190734863)" style="" class="label"><rect></rect><foreignObject height="25.600000381469727" width="117.875"><div style="display: table-cell; white-space: nowrap; line-height: 1.5; max-width: 200px; text-align: center;" xmlns="http://www.w3.org/1999/xhtml"><span class="nodeLabel"><p>是否有工具调用?</p></span></div></foreignObject></g></g><g transform="translate(248.28436660766602, 1779.4750003814697)" id="flowchart-M-23" class="node default"><rect height="81.20000076293945" width="192.2375030517578" y="-40.60000038146973" x="-96.1187515258789" style="fill:#f59e0b !important" class="basic label-container"></rect><g transform="translate(-66.1187515258789, -25.600000381469727)" style="" class="label"><rect></rect><foreignObject height="51.20000076293945" width="132.2375030517578"><div style="display: table-cell; white-space: nowrap; line-height: 1.5; max-width: 200px; text-align: center;" xmlns="http://www.w3.org/1999/xhtml"><span class="nodeLabel"><p>进入工具执行循环<br />max_iterations=20</p></span></div></foreignObject></g></g><g transform="translate(596.3999900817871, 2153.350004196167)" id="flowchart-N-25" class="node default"><rect height="55.60000038146973" width="156" y="-27.800000190734863" x="-78" style="fill:#a3e635 !important" class="basic label-container"></rect><g transform="translate(-48, -12.800000190734863)" style="" class="label"><rect></rect><foreignObject height="25.600000381469727" width="96"><div style="display: table-cell; white-space: nowrap; line-height: 1.5; max-width: 200px; text-align: center;" xmlns="http://www.w3.org/1999/xhtml"><span class="nodeLabel"><p>获取最终响应</p></span></div></foreignObject></g></g><g transform="translate(248.28436660766602, 1966.4125022888184)" id="flowchart-O-27" class="node default"><polygon style="fill:#b45709 !important" transform="translate(-70.23750019073486, 70.73750019073486)" class="label-container" points="70.73750019073486,0 141.47500038146973,-70.73750019073486 70.73750019073486,-141.47500038146973 0,-70.73750019073486"></polygon><g transform="translate(-42.9375, -12.800000190734863)" style="" class="label"><rect></rect><foreignObject height="25.600000381469727" width="85.875"><div style="display: table-cell; white-space: nowrap; line-height: 1.5; max-width: 200px; text-align: center;" xmlns="http://www.w3.org/1999/xhtml"><span class="nodeLabel"><p>有工具调用?</p></span></div></foreignObject></g></g><g transform="translate(149.74374389648438, 2153.350004196167)" id="flowchart-P-29" class="node default"><rect height="81.20000076293945" width="207.2375030517578" y="-40.60000038146973" x="-103.6187515258789" style="fill:#ffeb3b !important" class="basic label-container"></rect><g transform="translate(-73.6187515258789, -25.600000381469727)" style="" class="label"><rect></rect><foreignObject height="51.20000076293945" width="147.2375030517578"><div style="display: table-cell; white-space: nowrap; line-height: 1.5; max-width: 200px; text-align: center;" xmlns="http://www.w3.org/1999/xhtml"><span class="nodeLabel"><p>执行每个工具调用<br />ToolRegistry.execute</p></span></div></foreignObject></g></g><g transform="translate(406.3999900817871, 2153.350004196167)" id="flowchart-Q-31" class="node default"><rect height="55.60000038146973" width="124" y="-27.800000190734863" x="-62" style="fill:#7289da !important" class="basic label-container"></rect><g transform="translate(-32, -12.800000190734863)" style="" class="label"><rect></rect><foreignObject height="25.600000381469727" width="64"><div style="display: table-cell; white-space: nowrap; line-height: 1.5; max-width: 200px; text-align: center;" xmlns="http://www.w3.org/1999/xhtml"><span class="nodeLabel"><p>循环结束</p></span></div></foreignObject></g></g><g transform="translate(149.74374389648438, 2284.550001144409)" id="flowchart-R-33" class="node default"><rect height="81.20000076293945" width="283.4875030517578" y="-40.60000038146973" x="-141.7437515258789" style="fill:#4ade80 !important" class="basic label-container"></rect><g transform="translate(-111.7437515258789, -25.600000381469727)" style="" class="label"><rect></rect><foreignObject height="51.20000076293945" width="223.4875030517578"><div style="display: table; white-space: break-spaces; line-height: 1.5; max-width: 200px; text-align: center; width: 200px;" xmlns="http://www.w3.org/1999/xhtml"><span class="nodeLabel"><p>将工具结果回传给 LLM<br />ContextBuilder.add_tool_result</p></span></div></foreignObject></g></g><g transform="translate(194.32499313354492, 2415.7499980926514)" id="flowchart-S-35" class="node default"><rect height="81.20000076293945" width="172" y="-40.60000038146973" x="-86" style="" class="basic label-container"></rect><g transform="translate(-56, -25.600000381469727)" style="" class="label"><rect></rect><foreignObject height="51.20000076293945" width="112"><div style="display: table-cell; white-space: nowrap; line-height: 1.5; max-width: 200px; text-align: center;" xmlns="http://www.w3.org/1999/xhtml"><span class="nodeLabel"><p>继续下一次迭代<br />返回调用LLM</p></span></div></foreignObject></g></g><g transform="translate(492.1312370300293, 2284.550001144409)" id="flowchart-T-39" class="node default"><rect height="81.20000076293945" width="211.90000915527344" y="-40.60000038146973" x="-105.95000457763672" style="fill:#22c55e !important" class="basic label-container"></rect><g transform="translate(-75.95000457763672, -25.600000381469727)" style="" class="label"><rect></rect><foreignObject height="51.20000076293945" width="151.90000915527344"><div style="display: table-cell; white-space: nowrap; line-height: 1.5; max-width: 200px; text-align: center;" xmlns="http://www.w3.org/1999/xhtml"><span class="nodeLabel"><p>保存到会话<br />Session.add_message</p></span></div></foreignObject></g></g><g transform="translate(501.3999900817871, 2415.7499980926514)" id="flowchart-U-43" class="node default"><rect height="81.20000076293945" width="275.375" y="-40.60000038146973" x="-137.6875" style="" class="basic label-container"></rect><g transform="translate(-107.6875, -25.600000381469727)" style="" class="label"><rect></rect><foreignObject height="51.20000076293945" width="215.375"><div style="display: table; white-space: break-spaces; line-height: 1.5; max-width: 200px; text-align: center; width: 200px;" xmlns="http://www.w3.org/1999/xhtml"><span class="nodeLabel"><p>发布响应<br />MessageBus.publish_outbound</p></span></div></foreignObject></g></g><g transform="translate(785.7937355041504, 2534.149995803833)" id="flowchart-V-45" class="node default"><rect height="55.60000038146973" width="172" y="-27.800000190734863" x="-86" style="" class="basic label-container"></rect><g transform="translate(-56, -12.800000190734863)" style="" class="label"><rect></rect><foreignObject height="25.600000381469727" width="112"><div style="display: table-cell; white-space: nowrap; line-height: 1.5; max-width: 200px; text-align: center;" xmlns="http://www.w3.org/1999/xhtml"><span class="nodeLabel"><p>等待下一条消息</p></span></div></foreignObject></g></g><g transform="translate(920.6624870300293, 770.3125)" id="flowchart-W-49" class="node default"><rect height="81.20000076293945" width="247.8125" y="-40.60000038146973" x="-123.90625" style="" class="basic label-container"></rect><g transform="translate(-93.90625, -25.600000381469727)" style="" class="label"><rect></rect><foreignObject height="51.20000076293945" width="187.8125"><div style="display: table-cell; white-space: nowrap; line-height: 1.5; max-width: 200px; text-align: center;" xmlns="http://www.w3.org/1999/xhtml"><span class="nodeLabel"><p>处理系统消息<br />_process_system_message</p></span></div></foreignObject></g></g><g transform="translate(920.6624870300293, 901.5124969482422)" id="flowchart-X-51" class="node default"><rect height="81.20000076293945" width="211.9875030517578" y="-40.60000038146973" x="-105.9937515258789" style="" class="basic label-container"></rect><g transform="translate(-75.9937515258789, -25.600000381469727)" style="" class="label"><rect></rect><foreignObject height="51.20000076293945" width="151.9875030517578"><div style="display: table-cell; white-space: nowrap; line-height: 1.5; max-width: 200px; text-align: center;" xmlns="http://www.w3.org/1999/xhtml"><span class="nodeLabel"><p>解析原始来源<br />channel:chat_id 格式</p></span></div></foreignObject></g></g><g transform="translate(920.6624870300293, 1032.7124938964844)" id="flowchart-Y-53" class="node default"><rect height="55.60000038146973" width="156" y="-27.800000190734863" x="-78" style="" class="basic label-container"></rect><g transform="translate(-48, -12.800000190734863)" style="" class="label"><rect></rect><foreignObject height="25.600000381469727" width="96"><div style="display: table-cell; white-space: nowrap; line-height: 1.5; max-width: 200px; text-align: center;" xmlns="http://www.w3.org/1999/xhtml"><span class="nodeLabel"><p>获取原始会话</p></span></div></foreignObject></g></g><g transform="translate(920.6624870300293, 1163.9124908447266)" id="flowchart-Z-55" class="node default"><rect height="55.60000038146973" width="229.28750610351562" y="-27.800000190734863" x="-114.64375305175781" style="" class="basic label-container"></rect><g transform="translate(-84.64375305175781, -12.800000190734863)" style="" class="label"><rect></rect><foreignObject height="25.600000381469727" width="169.28750610351562"><div style="display: table-cell; white-space: nowrap; line-height: 1.5; max-width: 200px; text-align: center;" xmlns="http://www.w3.org/1999/xhtml"><span class="nodeLabel"><p>构建子Agent专用上下文</p></span></div></foreignObject></g></g><g transform="translate(920.6624870300293, 1347.1562423706055)" id="flowchart-AA-57" class="node default"><rect height="55.60000038146973" width="181.2874984741211" y="-27.800000190734863" x="-90.64374923706055" style="" class="basic label-container"></rect><g transform="translate(-60.64374923706055, -12.800000190734863)" style="" class="label"><rect></rect><foreignObject height="25.600000381469727" width="121.2874984741211"><div style="display: table-cell; white-space: nowrap; line-height: 1.5; max-width: 200px; text-align: center;" xmlns="http://www.w3.org/1999/xhtml"><span class="nodeLabel"><p>执行子Agent任务</p></span></div></foreignObject></g></g><g transform="translate(920.6624870300293, 1576.537498474121)" id="flowchart-AB-59" class="node default"><rect height="81.20000076293945" width="172" y="-40.60000038146973" x="-86" style="" class="basic label-container"></rect><g transform="translate(-56, -25.600000381469727)" style="" class="label"><rect></rect><foreignObject height="51.20000076293945" width="112"><div style="display: table-cell; white-space: nowrap; line-height: 1.5; max-width: 200px; text-align: center;" xmlns="http://www.w3.org/1999/xhtml"><span class="nodeLabel"><p>结果返回<br />发布到消息总线</p></span></div></foreignObject></g></g></g></g></g></svg>