<svg aria-roledescription="flowchart-v2" role="graphics-document document" viewBox="0 0 373.6000061035156 1375.5999755859375" height="1375.5999755859375" class="flowchart" xmlns="http://www.w3.org/2000/svg" width="373.6000061035156" id="v-1"><style>#v-1{font-family:"trebuchet ms",verdana,arial,sans-serif;font-size:16px;fill:#333;}@keyframes edge-animation-frame{from{stroke-dashoffset:0;}}@keyframes dash{to{stroke-dashoffset:0;}}#v-1 .edge-animation-slow{stroke-dasharray:9,5!important;stroke-dashoffset:900;animation:dash 50s linear infinite;stroke-linecap:round;}#v-1 .edge-animation-fast{stroke-dasharray:9,5!important;stroke-dashoffset:900;animation:dash 20s linear infinite;stroke-linecap:round;}#v-1 .error-icon{fill:#552222;}#v-1 .error-text{fill:#552222;stroke:#552222;}#v-1 .edge-thickness-normal{stroke-width:1px;}#v-1 .edge-thickness-thick{stroke-width:3.5px;}#v-1 .edge-pattern-solid{stroke-dasharray:0;}#v-1 .edge-thickness-invisible{stroke-width:0;fill:none;}#v-1 .edge-pattern-dashed{stroke-dasharray:3;}#v-1 .edge-pattern-dotted{stroke-dasharray:2;}#v-1 .marker{fill:#333333;stroke:#333333;}#v-1 .marker.cross{stroke:#333333;}#v-1 svg{font-family:"trebuchet ms",verdana,arial,sans-serif;font-size:16px;}#v-1 p{margin:0;}#v-1 .label{font-family:"trebuchet ms",verdana,arial,sans-serif;color:#333;}#v-1 .cluster-label text{fill:#333;}#v-1 .cluster-label span{color:#333;}#v-1 .cluster-label span p{background-color:transparent;}#v-1 .label text,#v-1 span{fill:#333;color:#333;}#v-1 .node rect,#v-1 .node circle,#v-1 .node ellipse,#v-1 .node polygon,#v-1 .node path{fill:#ECECFF;stroke:#9370DB;stroke-width:1px;}#v-1 .rough-node .label text,#v-1 .node .label text,#v-1 .image-shape .label,#v-1 .icon-shape .label{text-anchor:middle;}#v-1 .node .katex path{fill:#000;stroke:#000;stroke-width:1px;}#v-1 .rough-node .label,#v-1 .node .label,#v-1 .image-shape .label,#v-1 .icon-shape .label{text-align:center;}#v-1 .node.clickable{cursor:pointer;}#v-1 .root .anchor path{fill:#333333!important;stroke-width:0;stroke:#333333;}#v-1 .arrowheadPath{fill:#333333;}#v-1 .edgePath .path{stroke:#333333;stroke-width:2.0px;}#v-1 .flowchart-link{stroke:#333333;fill:none;}#v-1 .edgeLabel{background-color:rgba(232,232,232, 0.8);text-align:center;}#v-1 .edgeLabel p{background-color:rgba(232,232,232, 0.8);}#v-1 .edgeLabel rect{opacity:0.5;background-color:rgba(232,232,232, 0.8);fill:rgba(232,232,232, 0.8);}#v-1 .labelBkg{background-color:rgba(232, 232, 232, 0.5);}#v-1 .cluster rect{fill:#ffffde;stroke:#aaaa33;stroke-width:1px;}#v-1 .cluster text{fill:#333;}#v-1 .cluster span{color:#333;}#v-1 div.mermaidTooltip{position:absolute;text-align:center;max-width:200px;padding:2px;font-family:"trebuchet ms",verdana,arial,sans-serif;font-size:12px;background:hsl(80, 100%, 96.2745098039%);border:1px solid #aaaa33;border-radius:2px;pointer-events:none;z-index:100;}#v-1 .flowchartTitleText{text-anchor:middle;font-size:18px;fill:#333;}#v-1 rect.text{fill:none;stroke-width:0;}#v-1 .icon-shape,#v-1 .image-shape{background-color:rgba(232,232,232, 0.8);text-align:center;}#v-1 .icon-shape p,#v-1 .image-shape p{background-color:rgba(232,232,232, 0.8);padding:2px;}#v-1 .icon-shape rect,#v-1 .image-shape rect{opacity:0.5;background-color:rgba(232,232,232, 0.8);fill:rgba(232,232,232, 0.8);}#v-1 .label-icon{display:inline-block;height:1em;overflow:visible;vertical-align:-0.125em;}#v-1 .node .label-icon path{fill:currentColor;stroke:revert;stroke-width:revert;}#v-1 :root{--mermaid-font-family:"trebuchet ms",verdana,arial,sans-serif;}</style><g><marker orient="auto" markerHeight="8" markerWidth="8" markerUnits="userSpaceOnUse" refY="5" refX="5" viewBox="0 0 10 10" class="marker flowchart-v2" id="v-1_flowchart-v2-pointEnd"><path style="stroke-width: 1; stroke-dasharray: 1, 0;" class="arrowMarkerPath" d="M 0 0 L 10 5 L 0 10 z"></path></marker><marker orient="auto" markerHeight="8" markerWidth="8" markerUnits="userSpaceOnUse" refY="5" refX="4.5" viewBox="0 0 10 10" class="marker flowchart-v2" id="v-1_flowchart-v2-pointStart"><path style="stroke-width: 1; stroke-dasharray: 1, 0;" class="arrowMarkerPath" d="M 0 5 L 10 10 L 10 0 z"></path></marker><marker orient="auto" markerHeight="11" markerWidth="11" markerUnits="userSpaceOnUse" refY="5" refX="11" viewBox="0 0 10 10" class="marker flowchart-v2" id="v-1_flowchart-v2-circleEnd"><circle style="stroke-width: 1; stroke-dasharray: 1, 0;" class="arrowMarkerPath" r="5" cy="5" cx="5"></circle></marker><marker orient="auto" markerHeight="11" markerWidth="11" markerUnits="userSpaceOnUse" refY="5" refX="-1" viewBox="0 0 10 10" class="marker flowchart-v2" id="v-1_flowchart-v2-circleStart"><circle style="stroke-width: 1; stroke-dasharray: 1, 0;" class="arrowMarkerPath" r="5" cy="5" cx="5"></circle></marker><marker orient="auto" markerHeight="11" markerWidth="11" markerUnits="userSpaceOnUse" refY="5.2" refX="12" viewBox="0 0 11 11" class="marker cross flowchart-v2" id="v-1_flowchart-v2-crossEnd"><path style="stroke-width: 2; stroke-dasharray: 1, 0;" class="arrowMarkerPath" d="M 1,1 l 9,9 M 10,1 l -9,9"></path></marker><marker orient="auto" markerHeight="11" markerWidth="11" markerUnits="userSpaceOnUse" refY="5.2" refX="-1" viewBox="0 0 11 11" class="marker cross flowchart-v2" id="v-1_flowchart-v2-crossStart"><path style="stroke-width: 2; stroke-dasharray: 1, 0;" class="arrowMarkerPath" d="M 1,1 l 9,9 M 10,1 l -9,9"></path></marker><g class="root"><g class="clusters"></g><g class="edgePaths"><path marker-end="url(#v-1_flowchart-v2-pointEnd)" style="" class="edge-thickness-normal edge-pattern-solid edge-thickness-normal edge-pattern-solid flowchart-link" id="L_A_B_0" d="M224.5,63.6L224.5,67.767C224.5,71.933,224.5,80.267,224.5,87.933C224.5,95.6,224.5,102.6,224.5,106.1L224.5,109.6"></path><path marker-end="url(#v-1_flowchart-v2-pointEnd)" style="" class="edge-thickness-normal edge-pattern-solid edge-thickness-normal edge-pattern-solid flowchart-link" id="L_B_C_0" d="M224.5,169.2L224.5,173.367C224.5,177.533,224.5,185.867,224.5,193.533C224.5,201.2,224.5,208.2,224.5,211.7L224.5,215.2"></path><path marker-end="url(#v-1_flowchart-v2-pointEnd)" style="" class="edge-thickness-normal edge-pattern-solid edge-thickness-normal edge-pattern-solid flowchart-link" id="L_C_D_0" d="M224.5,300.4L224.5,304.567C224.5,308.733,224.5,317.067,224.57,324.817C224.641,332.567,224.781,339.734,224.851,343.317L224.922,346.901"></path><path marker-end="url(#v-1_flowchart-v2-pointEnd)" style="" class="edge-thickness-normal edge-pattern-solid edge-thickness-normal edge-pattern-solid flowchart-link" id="L_D_E_0" d="M179.089,586.189L172.241,600.057C165.392,613.926,151.696,641.663,144.848,661.165C138,680.667,138,691.933,138,697.567L138,703.2"></path><path marker-end="url(#v-1_flowchart-v2-pointEnd)" style="" class="edge-thickness-normal edge-pattern-solid edge-thickness-normal edge-pattern-solid flowchart-link" id="L_E_F_0" d="M138,788.4L138,792.567C138,796.733,138,805.067,144.257,813.053C150.514,821.039,163.028,828.677,169.285,832.497L175.542,836.316"></path><path marker-end="url(#v-1_flowchart-v2-pointEnd)" style="" class="edge-thickness-normal edge-pattern-solid edge-thickness-normal edge-pattern-solid flowchart-link" id="L_D_F_0" d="M270.911,586.189L277.593,600.057C284.274,613.926,297.637,641.663,304.319,668.598C311,695.533,311,721.667,311,745.667C311,769.667,311,791.533,304.743,806.286C298.486,821.039,285.972,828.677,279.715,832.497L273.458,836.316"></path><path marker-end="url(#v-1_flowchart-v2-pointEnd)" style="" class="edge-thickness-normal edge-pattern-solid edge-thickness-normal edge-pattern-solid flowchart-link" id="L_F_G_0" d="M224.5,894L224.5,898.167C224.5,902.333,224.5,910.667,224.5,918.333C224.5,926,224.5,933,224.5,936.5L224.5,940"></path><path marker-end="url(#v-1_flowchart-v2-pointEnd)" style="" class="edge-thickness-normal edge-pattern-solid edge-thickness-normal edge-pattern-solid flowchart-link" id="L_G_K_0" d="M224.5,1025.2L224.5,1029.367C224.5,1033.533,224.5,1041.867,224.5,1049.533C224.5,1057.2,224.5,1064.2,224.5,1067.7L224.5,1071.2"></path><path marker-end="url(#v-1_flowchart-v2-pointEnd)" style="" class="edge-thickness-normal edge-pattern-solid edge-thickness-normal edge-pattern-solid flowchart-link" id="L_K_I_0" d="M224.5,1156.4L224.5,1160.567C224.5,1164.733,224.5,1173.067,224.5,1180.733C224.5,1188.4,224.5,1195.4,224.5,1198.9L224.5,1202.4"></path><path marker-end="url(#v-1_flowchart-v2-pointEnd)" style="" class="edge-thickness-normal edge-pattern-solid edge-thickness-normal edge-pattern-solid flowchart-link" id="L_I_J_0" d="M224.5,1262L224.5,1266.167C224.5,1270.333,224.5,1278.667,224.57,1286.417C224.641,1294.167,224.781,1301.334,224.851,1304.917L224.922,1308.501"></path></g><g class="edgeLabels"><g class="edgeLabel"><g transform="translate(0, 0)" class="label"><foreignObject height="0" width="0"><div style="display: table-cell; white-space: nowrap; line-height: 1.5; max-width: 200px; text-align: center;" class="labelBkg" xmlns="http://www.w3.org/1999/xhtml"><span class="edgeLabel"></span></div></foreignObject></g></g><g class="edgeLabel"><g transform="translate(0, 0)" class="label"><foreignObject height="0" width="0"><div style="display: table-cell; white-space: nowrap; line-height: 1.5; max-width: 200px; text-align: center;" class="labelBkg" xmlns="http://www.w3.org/1999/xhtml"><span class="edgeLabel"></span></div></foreignObject></g></g><g class="edgeLabel"><g transform="translate(0, 0)" class="label"><foreignObject height="0" width="0"><div style="display: table-cell; white-space: nowrap; line-height: 1.5; max-width: 200px; text-align: center;" class="labelBkg" xmlns="http://www.w3.org/1999/xhtml"><span class="edgeLabel"></span></div></foreignObject></g></g><g transform="translate(138, 669.4000062942505)" class="edgeLabel"><g transform="translate(-8, -12.800000190734863)" class="label"><foreignObject height="25.600000381469727" width="16"><div style="display: table-cell; white-space: nowrap; line-height: 1.5; max-width: 200px; text-align: center;" class="labelBkg" xmlns="http://www.w3.org/1999/xhtml"><span class="edgeLabel"><p>是</p></span></div></foreignObject></g></g><g class="edgeLabel"><g transform="translate(0, 0)" class="label"><foreignObject height="0" width="0"><div style="display: table-cell; white-space: nowrap; line-height: 1.5; max-width: 200px; text-align: center;" class="labelBkg" xmlns="http://www.w3.org/1999/xhtml"><span class="edgeLabel"></span></div></foreignObject></g></g><g transform="translate(311, 747.8000049591064)" class="edgeLabel"><g transform="translate(-8, -12.800000190734863)" class="label"><foreignObject height="25.600000381469727" width="16"><div style="display: table-cell; white-space: nowrap; line-height: 1.5; max-width: 200px; text-align: center;" class="labelBkg" xmlns="http://www.w3.org/1999/xhtml"><span class="edgeLabel"><p>否</p></span></div></foreignObject></g></g><g class="edgeLabel"><g transform="translate(0, 0)" class="label"><foreignObject height="0" width="0"><div style="display: table-cell; white-space: nowrap; line-height: 1.5; max-width: 200px; text-align: center;" class="labelBkg" xmlns="http://www.w3.org/1999/xhtml"><span class="edgeLabel"></span></div></foreignObject></g></g><g class="edgeLabel"><g transform="translate(0, 0)" class="label"><foreignObject height="0" width="0"><div style="display: table-cell; white-space: nowrap; line-height: 1.5; max-width: 200px; text-align: center;" class="labelBkg" xmlns="http://www.w3.org/1999/xhtml"><span class="edgeLabel"></span></div></foreignObject></g></g><g class="edgeLabel"><g transform="translate(0, 0)" class="label"><foreignObject height="0" width="0"><div style="display: table-cell; white-space: nowrap; line-height: 1.5; max-width: 200px; text-align: center;" class="labelBkg" xmlns="http://www.w3.org/1999/xhtml"><span class="edgeLabel"></span></div></foreignObject></g></g><g class="edgeLabel"><g transform="translate(0, 0)" class="label"><foreignObject height="0" width="0"><div style="display: table-cell; white-space: nowrap; line-height: 1.5; max-width: 200px; text-align: center;" class="labelBkg" xmlns="http://www.w3.org/1999/xhtml"><span class="edgeLabel"></span></div></foreignObject></g></g></g><g class="nodes"><g transform="translate(224.5, 35.79999923706055)" id="flowchart-A-0" class="node default"><rect height="55.60000038146973" width="207.6750030517578" y="-27.800000190734863" x="-103.8375015258789" style="" class="basic label-container"></rect><g transform="translate(-73.8375015258789, -12.800000190734863)" style="" class="label"><rect></rect><foreignObject height="25.600000381469727" width="147.6750030517578"><div style="display: table-cell; white-space: nowrap; line-height: 1.5; max-width: 200px; text-align: center;" xmlns="http://www.w3.org/1999/xhtml"><span class="nodeLabel"><p>开始 build_messages</p></span></div></foreignObject></g></g><g transform="translate(224.5, 141.39999771118164)" id="flowchart-B-1" class="node default"><rect height="55.60000038146973" width="200.125" y="-27.800000190734863" x="-100.0625" style="" class="basic label-container"></rect><g transform="translate(-70.0625, -12.800000190734863)" style="" class="label"><rect></rect><foreignObject height="25.600000381469727" width="140.125"><div style="display: table-cell; white-space: nowrap; line-height: 1.5; max-width: 200px; text-align: center;" xmlns="http://www.w3.org/1999/xhtml"><span class="nodeLabel"><p>初始化message列表</p></span></div></foreignObject></g></g><g transform="translate(224.5, 259.7999954223633)" id="flowchart-C-3" class="node default"><rect height="81.20000076293945" width="260" y="-40.60000038146973" x="-130" style="" class="basic label-container"></rect><g transform="translate(-100, -25.600000381469727)" style="" class="label"><rect></rect><foreignObject height="51.20000076293945" width="200"><div style="display: table; white-space: break-spaces; line-height: 1.5; max-width: 200px; text-align: center; width: 200px;" xmlns="http://www.w3.org/1999/xhtml"><span class="nodeLabel"><p>使用 build_system_prompt 构建系统提示</p></span></div></foreignObject></g></g><g transform="translate(224.5, 491)" id="flowchart-D-5" class="node default"><polygon transform="translate(-140.10000038146973, 140.60000038146973)" class="label-container" points="140.60000038146973,0 281.20000076293945,-140.60000038146973 140.60000038146973,-281.20000076293945 0,-140.60000038146973"></polygon><g transform="translate(-100, -25.600000381469727)" style="" class="label"><rect></rect><foreignObject height="51.20000076293945" width="200"><div style="display: table; white-space: break-spaces; line-height: 1.5; max-width: 200px; text-align: center; width: 200px;" xmlns="http://www.w3.org/1999/xhtml"><span class="nodeLabel"><p>是否向系统提示添加 channel 和 chat_id?</p></span></div></foreignObject></g></g><g transform="translate(138, 747.8000049591064)" id="flowchart-E-7" class="node default"><rect height="81.20000076293945" width="260" y="-40.60000038146973" x="-130" style="" class="basic label-container"></rect><g transform="translate(-100, -25.600000381469727)" style="" class="label"><rect></rect><foreignObject height="51.20000076293945" width="200"><div style="display: table; white-space: break-spaces; line-height: 1.5; max-width: 200px; text-align: center; width: 200px;" xmlns="http://www.w3.org/1999/xhtml"><span class="nodeLabel"><p>系统提示 += Channel 和 Chat ID 信息</p></span></div></foreignObject></g></g><g transform="translate(224.5, 866.2000026702881)" id="flowchart-F-9" class="node default"><rect height="55.60000038146973" width="252" y="-27.800000190734863" x="-126" style="" class="basic label-container"></rect><g transform="translate(-96, -12.800000190734863)" style="" class="label"><rect></rect><foreignObject height="25.600000381469727" width="192"><div style="display: table-cell; white-space: nowrap; line-height: 1.5; max-width: 200px; text-align: center;" xmlns="http://www.w3.org/1999/xhtml"><span class="nodeLabel"><p>将系统消息追加到消息列表</p></span></div></foreignObject></g></g><g transform="translate(224.5, 984.6000003814697)" id="flowchart-G-13" class="node default"><rect height="81.20000076293945" width="260" y="-40.60000038146973" x="-130" style="" class="basic label-container"></rect><g transform="translate(-100, -25.600000381469727)" style="" class="label"><rect></rect><foreignObject height="51.20000076293945" width="200"><div style="display: table; white-space: break-spaces; line-height: 1.5; max-width: 200px; text-align: center; width: 200px;" xmlns="http://www.w3.org/1999/xhtml"><span class="nodeLabel"><p>将对话历史列表合并到上面列表</p></span></div></foreignObject></g></g><g transform="translate(224.5, 1115.799997329712)" id="flowchart-K-15" class="node default"><rect height="81.20000076293945" width="260" y="-40.60000038146973" x="-130" style="" class="basic label-container"></rect><g transform="translate(-100, -25.600000381469727)" style="" class="label"><rect></rect><foreignObject height="51.20000076293945" width="200"><div style="display: table; white-space: break-spaces; line-height: 1.5; max-width: 200px; text-align: center; width: 200px;" xmlns="http://www.w3.org/1999/xhtml"><span class="nodeLabel"><p>使用_build_user_content构建当前消息</p></span></div></foreignObject></g></g><g transform="translate(224.5, 1234.1999950408936)" id="flowchart-I-17" class="node default"><rect height="55.60000038146973" width="252" y="-27.800000190734863" x="-126" style="" class="basic label-container"></rect><g transform="translate(-96, -12.800000190734863)" style="" class="label"><rect></rect><foreignObject height="25.600000381469727" width="192"><div style="display: table-cell; white-space: nowrap; line-height: 1.5; max-width: 200px; text-align: center;" xmlns="http://www.w3.org/1999/xhtml"><span class="nodeLabel"><p>将用户消息追加到消息列表</p></span></div></foreignObject></g></g><g transform="translate(224.5, 1339.7999954223633)" id="flowchart-J-19" class="node default"><g class="basic label-container outer-path"><path style="" fill="#ECECFF" stroke-width="0" stroke="none" d="M-74 -27.800000190734863 C-38.007627220360305 -27.800000190734863, -2.0152544407206108 -27.800000190734863, 74 -27.800000190734863 C74 -27.800000190734863, 74 -27.800000190734863, 74 -27.800000190734863 C74.08265456776972 -27.7965815725243, 74.16530913553945 -27.793162954313733, 74.41289672736166 -27.78292265576821 C74.52790663809502 -27.7685866853458, 74.64291654882837 -27.754250714923387, 74.82297295140367 -27.731806707748476 C74.96477831741768 -27.702073249240353, 75.10658368343168 -27.67233979073223, 75.227427435704 -27.647001520431516 C75.31219143236395 -27.621766185258135, 75.3969554290239 -27.59653085008475, 75.62349734602341 -27.529086399238036 C75.71262926465424 -27.494307016663942, 75.80176118328507 -27.45952763408985, 76.00847712326485 -27.37886682401015 C76.1420582507186 -27.313562990050773, 76.27563937817237 -27.248259156091393, 76.37973696518537 -27.19736894676731 C76.48399000428937 -27.135247619267414, 76.58824304339338 -27.07312629176752, 76.73474079061214 -26.985832582047507 C76.86377073799888 -26.89370697033622, 76.9928006853856 -26.80158135862493, 77.07106356344833 -26.745702737716833 C77.13558341796494 -26.691057208424954, 77.20010327248154 -26.636411679133072, 77.3864078581287 -26.47861974410052 C77.4859156396828 -26.37911196254643, 77.5854234212369 -26.27960418099234, 77.67861955336566 -26.18640804886357 C77.73968309076268 -26.114310466496285, 77.80074662815971 -26.042212884128997, 77.94570254698196 -25.871063754183204 C78.01234012841599 -25.77773201432614, 78.07897770985001 -25.684400274469073, 78.18583239131264 -25.534740981347 C78.25114566713535 -25.42513116178276, 78.31645894295805 -25.31552134221852, 78.39736875603245 -25.179737155920233 C78.43440484409601 -25.103978626902105, 78.47144093215955 -25.02822009788398, 78.57886663327528 -24.80847731399971 C78.62633159377238 -24.68683504539907, 78.67379655426947 -24.565192776798433, 78.72908620850318 -24.42349753675828 C78.76967937817498 -24.28714748335745, 78.8102725478468 -24.150797429956626, 78.84700132969665 -24.027427626438858 C78.86848048322176 -23.924988846016927, 78.88995963674685 -23.822550065594996, 78.93180651701361 -23.622973142138534 C78.95145274072766 -23.465361876976583, 78.97109896444172 -23.307750611814633, 78.98292246503335 -23.212896918096526 C78.98773648634565 -23.09650461386876, 78.99255050765795 -22.980112309640997, 79 -22.800000190734863 C79 -22.800000190734863, 79 -22.800000190734863, 79 -22.800000190734863 C79 -7.430475450410034, 79 7.939049289914795, 79 22.800000190734863 C79 22.800000190734863, 79 22.800000190734863, 79 22.800000190734863 C78.99317898411043 22.964917149978913, 78.98635796822087 23.12983410922296, 78.98292246503335 23.212896918096526 C78.9634724828065 23.368933841566957, 78.94402250057963 23.524970765037388, 78.93180651701361 23.622973142138534 C78.90158133131975 23.76712366263683, 78.87135614562588 23.911274183135127, 78.84700132969665 24.027427626438858 C78.81926006415235 24.1206088948383, 78.79151879860804 24.21379016323774, 78.72908620850318 24.42349753675828 C78.69448424811318 24.51217476130007, 78.65988228772319 24.60085198584186, 78.57886663327528 24.80847731399971 C78.51423608656104 24.940681210380617, 78.4496055398468 25.07288510676152, 78.39736875603245 25.17973715592023 C78.35373373580948 25.25296616844603, 78.3100987155865 25.32619518097183, 78.18583239131264 25.534740981346996 C78.11917856142875 25.62809547857406, 78.05252473154485 25.72144997580113, 77.94570254698196 25.871063754183204 C77.87601951003785 25.95333836043499, 77.80633647309372 26.035612966686777, 77.67861955336566 26.18640804886357 C77.59762319578421 26.26740440644502, 77.51662683820275 26.348400764026472, 77.3864078581287 26.47861974410052 C77.29438110900296 26.55656242473216, 77.20235435987722 26.634505105363797, 77.07106356344833 26.745702737716833 C76.94652695463454 26.834620167350696, 76.82199034582072 26.92353759698456, 76.73474079061214 26.985832582047507 C76.61632201201424 27.056394858127334, 76.49790323341634 27.12695713420716, 76.37973696518537 27.19736894676731 C76.2579030628021 27.25692991232821, 76.13606916041884 27.316490877889116, 76.00847712326485 27.37886682401015 C75.91636484702921 27.414809145730374, 75.82425257079358 27.450751467450594, 75.62349734602341 27.529086399238036 C75.517429719149 27.560664099921013, 75.41136209227462 27.59224180060399, 75.227427435704 27.647001520431516 C75.09328314470385 27.675128620432517, 74.95913885370369 27.703255720433518, 74.82297295140367 27.731806707748476 C74.66655217057618 27.751304537744993, 74.51013138974868 27.77080236774151, 74.41289672736166 27.78292265576821 C74.30162727192779 27.787524794487098, 74.19035781649391 27.79212693320598, 74 27.800000190734863 C74 27.800000190734863, 74 27.800000190734863, 74 27.800000190734863 C18.591345149261002 27.800000190734863, -36.817309701477996 27.800000190734863, -74 27.800000190734863 C-74 27.800000190734863, -74 27.800000190734863, -74 27.800000190734863 C-74.15867471044328 27.79343735616547, -74.31734942088657 27.786874521596076, -74.41289672736166 27.78292265576821 C-74.49915143626697 27.772171017515685, -74.58540614517227 27.76141937926316, -74.82297295140367 27.731806707748476 C-74.97243286812213 27.700468258737057, -75.12189278484058 27.66912980972564, -75.227427435704 27.647001520431516 C-75.31751587778302 27.62018102917705, -75.40760431986203 27.59336053792258, -75.62349734602341 27.529086399238036 C-75.7366394173885 27.484938225994618, -75.8497814887536 27.4407900527512, -76.00847712326485 27.37886682401015 C-76.14384282072511 27.31269056693521, -76.27920851818537 27.246514309860274, -76.37973696518537 27.19736894676731 C-76.46645835775175 27.145694213108094, -76.55317975031814 27.094019479448875, -76.73474079061214 26.985832582047507 C-76.86627623731556 26.891918078207944, -76.99781168401897 26.79800357436838, -77.07106356344833 26.745702737716833 C-77.14586403315293 26.682349971519304, -77.22066450285753 26.618997205321776, -77.3864078581287 26.478619744100524 C-77.44948651401106 26.41554108821818, -77.51256516989339 26.352462432335837, -77.67861955336566 26.18640804886357 C-77.75725964952643 26.093557862778564, -77.8358997456872 26.000707676693562, -77.94570254698196 25.871063754183204 C-78.02054599381738 25.766238984740372, -78.0953894406528 25.661414215297544, -78.18583239131264 25.534740981346996 C-78.26363709227174 25.404167845549512, -78.34144179323084 25.273594709752025, -78.39736875603245 25.179737155920233 C-78.46343067600087 25.04460533874958, -78.52949259596929 24.909473521578924, -78.57886663327528 24.808477313999713 C-78.62657042491762 24.68622297363044, -78.67427421655995 24.563968633261165, -78.72908620850318 24.42349753675828 C-78.76626904256084 24.298602598758958, -78.80345187661851 24.173707660759636, -78.84700132969665 24.027427626438858 C-78.86648374256318 23.93451173888348, -78.8859661554297 23.841595851328105, -78.93180651701361 23.622973142138534 C-78.94410128474055 23.524338721370498, -78.95639605246748 23.42570430060246, -78.98292246503335 23.212896918096526 C-78.98736675545732 23.105443882568817, -78.99181104588126 22.997990847041113, -79 22.800000190734863 C-79 22.800000190734863, -79 22.800000190734863, -79 22.800000190734863 C-79 11.740180621985383, -79 0.6803610532359023, -79 -22.800000190734863 C-79 -22.800000190734863, -79 -22.800000190734863, -79 -22.800000190734863 C-78.99444824865071 -22.934229162757095, -78.98889649730143 -23.068458134779323, -78.98292246503335 -23.212896918096522 C-78.96859353632729 -23.327850336862845, -78.95426460762123 -23.44280375562917, -78.93180651701361 -23.622973142138534 C-78.90143664332099 -23.767813711344612, -78.87106676962836 -23.912654280550687, -78.84700132969665 -24.027427626438858 C-78.80222585512048 -24.177825794378627, -78.7574503805443 -24.328223962318397, -78.72908620850318 -24.42349753675828 C-78.67350323916898 -24.565944478977592, -78.61792026983478 -24.7083914211969, -78.57886663327528 -24.80847731399971 C-78.52424665997019 -24.920204255179414, -78.4696266866651 -25.031931196359118, -78.39736875603245 -25.17973715592023 C-78.3329412570158 -25.28786045020055, -78.26851375799916 -25.39598374448087, -78.18583239131264 -25.534740981346996 C-78.11266642412286 -25.637216294363988, -78.0395004569331 -25.739691607380976, -77.94570254698196 -25.871063754183204 C-77.8555848369099 -25.977465533405855, -77.76546712683782 -26.083867312628506, -77.67861955336566 -26.18640804886357 C-77.60762450619566 -26.257403096033563, -77.53662945902568 -26.328398143203557, -77.3864078581287 -26.47861974410052 C-77.29490599713958 -26.55611786715745, -77.20340413615044 -26.633615990214384, -77.07106356344833 -26.74570273771683 C-76.98267969473093 -26.808807607058487, -76.89429582601353 -26.87191247640014, -76.73474079061214 -26.985832582047507 C-76.65450820111118 -27.033640828323964, -76.57427561161023 -27.081449074600425, -76.37973696518537 -27.19736894676731 C-76.28333364104958 -27.244497660175384, -76.1869303169138 -27.291626373583455, -76.00847712326485 -27.37886682401015 C-75.87696892797693 -27.430181481046663, -75.74546073268901 -27.481496138083177, -75.62349734602341 -27.529086399238036 C-75.52736391594921 -27.55770656139275, -75.431230485875 -27.586326723547465, -75.227427435704 -27.647001520431516 C-75.06968831784583 -27.680075935369246, -74.91194919998765 -27.713150350306975, -74.82297295140367 -27.731806707748476 C-74.6919629787173 -27.748137083813432, -74.56095300603094 -27.76446745987839, -74.41289672736167 -27.78292265576821 C-74.27194675984313 -27.788752389547472, -74.13099679232458 -27.79458212332673, -74 -27.800000190734863 C-74 -27.800000190734863, -74 -27.800000190734863, -74 -27.800000190734863"></path><path style="" stroke-dasharray="0 0" fill="none" stroke-width="1.3" stroke="#9370DB" d="M-74 -27.800000190734863 C-39.426045128808624 -27.800000190734863, -4.852090257617249 -27.800000190734863, 74 -27.800000190734863 M-74 -27.800000190734863 C-25.29369114312017 -27.800000190734863, 23.41261771375966 -27.800000190734863, 74 -27.800000190734863 M74 -27.800000190734863 C74 -27.800000190734863, 74 -27.800000190734863, 74 -27.800000190734863 M74 -27.800000190734863 C74 -27.800000190734863, 74 -27.800000190734863, 74 -27.800000190734863 M74 -27.800000190734863 C74.10752794611258 -27.795552801986197, 74.21505589222515 -27.791105413237528, 74.41289672736166 -27.78292265576821 M74 -27.800000190734863 C74.13943194336997 -27.794233242898816, 74.27886388673993 -27.788466295062772, 74.41289672736166 -27.78292265576821 M74.41289672736166 -27.78292265576821 C74.5300503518394 -27.768319471706228, 74.64720397631714 -27.753716287644245, 74.82297295140367 -27.731806707748476 M74.41289672736166 -27.78292265576821 C74.53020228667444 -27.76830053304879, 74.64750784598722 -27.753678410329375, 74.82297295140367 -27.731806707748476 M74.82297295140367 -27.731806707748476 C74.97282276926225 -27.70038650506512, 75.12267258712085 -27.668966302381758, 75.227427435704 -27.647001520431516 M74.82297295140367 -27.731806707748476 C74.9086988608326 -27.71383187475926, 74.99442477026153 -27.695857041770047, 75.227427435704 -27.647001520431516 M75.227427435704 -27.647001520431516 C75.35813394972895 -27.60808850522771, 75.48884046375392 -27.569175490023902, 75.62349734602341 -27.529086399238036 M75.227427435704 -27.647001520431516 C75.34465404970715 -27.612101645340942, 75.4618806637103 -27.577201770250365, 75.62349734602341 -27.529086399238036 M75.62349734602341 -27.529086399238036 C75.71852798517133 -27.492005328775775, 75.81355862431926 -27.45492425831351, 76.00847712326485 -27.37886682401015 M75.62349734602341 -27.529086399238036 C75.76199497649505 -27.475044456129762, 75.90049260696668 -27.42100251302149, 76.00847712326485 -27.37886682401015 M76.00847712326485 -27.37886682401015 C76.10902891948629 -27.329710046178377, 76.20958071570773 -27.280553268346605, 76.37973696518537 -27.19736894676731 M76.00847712326485 -27.37886682401015 C76.0983300279261 -27.33494041555251, 76.18818293258734 -27.291014007094873, 76.37973696518537 -27.19736894676731 M76.37973696518537 -27.19736894676731 C76.4630142397226 -27.14774646200056, 76.54629151425983 -27.098123977233804, 76.73474079061214 -26.985832582047507 M76.37973696518537 -27.19736894676731 C76.47822989644712 -27.138679898544627, 76.57672282770886 -27.079990850321945, 76.73474079061214 -26.985832582047507 M76.73474079061214 -26.985832582047507 C76.84586256046455 -26.906493163335576, 76.95698433031697 -26.82715374462364, 77.07106356344833 -26.745702737716833 M76.73474079061214 -26.985832582047507 C76.83400320014933 -26.914960583850522, 76.93326560968652 -26.844088585653534, 77.07106356344833 -26.745702737716833 M77.07106356344833 -26.745702737716833 C77.1894836522078 -26.645406038700145, 77.30790374096726 -26.54510933968346, 77.3864078581287 -26.47861974410052 M77.07106356344833 -26.745702737716833 C77.18433437409253 -26.64976725479693, 77.29760518473671 -26.553831771877032, 77.3864078581287 -26.47861974410052 M77.3864078581287 -26.47861974410052 C77.47982184514335 -26.385205757085888, 77.57323583215798 -26.291791770071253, 77.67861955336566 -26.18640804886357 M77.3864078581287 -26.47861974410052 C77.44635380579744 -26.418673796431783, 77.50629975346618 -26.358727848763046, 77.67861955336566 -26.18640804886357 M77.67861955336566 -26.18640804886357 C77.75138433075693 -26.100494838541422, 77.82414910814822 -26.01458162821928, 77.94570254698196 -25.871063754183204 M77.67861955336566 -26.18640804886357 C77.73682660222127 -26.117683116144097, 77.79503365107686 -26.048958183424624, 77.94570254698196 -25.871063754183204 M77.94570254698196 -25.871063754183204 C78.01422705454115 -25.77508920985375, 78.08275156210033 -25.679114665524295, 78.18583239131264 -25.534740981347 M77.94570254698196 -25.871063754183204 C77.99506380045722 -25.801929017158983, 78.04442505393247 -25.73279428013476, 78.18583239131264 -25.534740981347 M78.18583239131264 -25.534740981347 C78.25549591621959 -25.417830501829982, 78.32515944112654 -25.300920022312965, 78.39736875603245 -25.179737155920233 M78.18583239131264 -25.534740981347 C78.26406091002549 -25.403456587586536, 78.34228942873834 -25.272172193826076, 78.39736875603245 -25.179737155920233 M78.39736875603245 -25.179737155920233 C78.4636569425747 -25.044142503075072, 78.52994512911695 -24.908547850229912, 78.57886663327528 -24.80847731399971 M78.39736875603245 -25.179737155920233 C78.44780547759353 -25.076567192953092, 78.49824219915462 -24.973397229985956, 78.57886663327528 -24.80847731399971 M78.57886663327528 -24.80847731399971 C78.612931131797 -24.72117748617876, 78.64699563031871 -24.63387765835781, 78.72908620850318 -24.42349753675828 M78.57886663327528 -24.80847731399971 C78.61399480860746 -24.718451516138384, 78.64912298393965 -24.628425718277054, 78.72908620850318 -24.42349753675828 M78.72908620850318 -24.42349753675828 C78.76420013907035 -24.30555192308345, 78.79931406963755 -24.187606309408615, 78.84700132969665 -24.027427626438858 M78.72908620850318 -24.42349753675828 C78.7744591409223 -24.271092543299574, 78.81983207334144 -24.118687549840867, 78.84700132969665 -24.027427626438858 M78.84700132969665 -24.027427626438858 C78.8729567004386 -23.903640787209028, 78.89891207118056 -23.7798539479792, 78.93180651701361 -23.622973142138534 M78.84700132969665 -24.027427626438858 C78.8734621064144 -23.90123039558362, 78.89992288313213 -23.775033164728388, 78.93180651701361 -23.622973142138534 M78.93180651701361 -23.622973142138534 C78.9462014879173 -23.507489901739604, 78.96059645882102 -23.392006661340673, 78.98292246503335 -23.212896918096526 M78.93180651701361 -23.622973142138534 C78.94992227096938 -23.477640026630553, 78.96803802492514 -23.33230691112257, 78.98292246503335 -23.212896918096526 M78.98292246503335 -23.212896918096526 C78.98666612311007 -23.122383610921, 78.99040978118678 -23.031870303745468, 79 -22.800000190734863 M78.98292246503335 -23.212896918096526 C78.987655858095 -23.098454025238567, 78.99238925115662 -22.984011132380605, 79 -22.800000190734863 M79 -22.800000190734863 C79 -22.800000190734863, 79 -22.800000190734863, 79 -22.800000190734863 M79 -22.800000190734863 C79 -22.800000190734863, 79 -22.800000190734863, 79 -22.800000190734863 M79 -22.800000190734863 C79 -11.926605112779848, 79 -1.0532100348248328, 79 22.800000190734863 M79 -22.800000190734863 C79 -7.782392033446694, 79 7.235216123841475, 79 22.800000190734863 M79 22.800000190734863 C79 22.800000190734863, 79 22.800000190734863, 79 22.800000190734863 M79 22.800000190734863 C79 22.800000190734863, 79 22.800000190734863, 79 22.800000190734863 M79 22.800000190734863 C78.99578404941333 22.901932477997423, 78.99156809882665 23.003864765259983, 78.98292246503335 23.212896918096526 M79 22.800000190734863 C78.99416380064004 22.941106481582075, 78.98832760128009 23.08221277242929, 78.98292246503335 23.212896918096526 M78.98292246503335 23.212896918096526 C78.96403915747779 23.364387710301404, 78.9451558499222 23.515878502506283, 78.93180651701361 23.622973142138534 M78.98292246503335 23.212896918096526 C78.96742816711297 23.337199477894877, 78.95193386919259 23.46150203769323, 78.93180651701361 23.622973142138534 M78.93180651701361 23.622973142138534 C78.90575140009047 23.747235692719897, 78.87969628316732 23.87149824330126, 78.84700132969665 24.027427626438858 M78.93180651701361 23.622973142138534 C78.90327103238528 23.75906510873579, 78.87473554775694 23.895157075333046, 78.84700132969665 24.027427626438858 M78.84700132969665 24.027427626438858 C78.81077588635048 24.149106745725494, 78.77455044300432 24.270785865012126, 78.72908620850318 24.42349753675828 M78.84700132969665 24.027427626438858 C78.8165539606904 24.12969853613822, 78.78610659168416 24.231969445837585, 78.72908620850318 24.42349753675828 M78.72908620850318 24.42349753675828 C78.67848166543419 24.55318586591611, 78.62787712236519 24.682874195073943, 78.57886663327528 24.80847731399971 M78.72908620850318 24.42349753675828 C78.6978196980117 24.503626735804854, 78.66655318752021 24.583755934851432, 78.57886663327528 24.80847731399971 M78.57886663327528 24.80847731399971 C78.52406883156799 24.920568008990177, 78.46927102986068 25.032658703980644, 78.39736875603245 25.17973715592023 M78.57886663327528 24.80847731399971 C78.5176615486679 24.933674315646545, 78.45645646406052 25.058871317293377, 78.39736875603245 25.17973715592023 M78.39736875603245 25.17973715592023 C78.34247270614593 25.271864614649836, 78.2875766562594 25.36399207337944, 78.18583239131264 25.534740981346996 M78.39736875603245 25.17973715592023 C78.33091842280294 25.291255204027976, 78.26446808957343 25.402773252135724, 78.18583239131264 25.534740981346996 M78.18583239131264 25.534740981346996 C78.10343591400076 25.650144428172652, 78.02103943668888 25.765547874998305, 77.94570254698196 25.871063754183204 M78.18583239131264 25.534740981346996 C78.13412558273724 25.607160872689793, 78.08241877416184 25.67958076403259, 77.94570254698196 25.871063754183204 M77.94570254698196 25.871063754183204 C77.88926445796577 25.93770007996698, 77.83282636894955 26.00433640575076, 77.67861955336566 26.18640804886357 M77.94570254698196 25.871063754183204 C77.86415258665315 25.9673496103993, 77.78260262632432 26.06363546661539, 77.67861955336566 26.18640804886357 M77.67861955336566 26.18640804886357 C77.56527512901545 26.299752473213786, 77.45193070466523 26.413096897564003, 77.3864078581287 26.47861974410052 M77.67861955336566 26.18640804886357 C77.57763400028574 26.287393601943492, 77.47664844720582 26.388379155023415, 77.3864078581287 26.47861974410052 M77.3864078581287 26.47861974410052 C77.26450659451396 26.581864847820693, 77.1426053308992 26.685109951540863, 77.07106356344833 26.745702737716833 M77.3864078581287 26.47861974410052 C77.27862933022615 26.569903500824108, 77.17085080232359 26.661187257547695, 77.07106356344833 26.745702737716833 M77.07106356344833 26.745702737716833 C76.96550236850605 26.821071982252636, 76.85994117356377 26.89644122678844, 76.73474079061214 26.985832582047507 M77.07106356344833 26.745702737716833 C76.95855813993391 26.826030066155077, 76.84605271641949 26.90635739459332, 76.73474079061214 26.985832582047507 M76.73474079061214 26.985832582047507 C76.62238215624858 27.052783795966338, 76.510023521885 27.11973500988517, 76.37973696518537 27.19736894676731 M76.73474079061214 26.985832582047507 C76.6170464901194 27.055963162878694, 76.49935218962668 27.126093743709877, 76.37973696518537 27.19736894676731 M76.37973696518537 27.19736894676731 C76.29394490839292 27.239310127670638, 76.20815285160045 27.281251308573964, 76.00847712326485 27.37886682401015 M76.37973696518537 27.19736894676731 C76.25571802528661 27.25799811207938, 76.13169908538785 27.318627277391453, 76.00847712326485 27.37886682401015 M76.00847712326485 27.37886682401015 C75.90478718901487 27.419326761906245, 75.80109725476488 27.459786699802336, 75.62349734602341 27.529086399238036 M76.00847712326485 27.37886682401015 C75.86609090805747 27.43442609759076, 75.72370469285008 27.48998537117137, 75.62349734602341 27.529086399238036 M75.62349734602341 27.529086399238036 C75.47941840537655 27.571980558337632, 75.33533946472969 27.614874717437225, 75.227427435704 27.647001520431516 M75.62349734602341 27.529086399238036 C75.46571990032562 27.57605877998781, 75.30794245462783 27.623031160737586, 75.227427435704 27.647001520431516 M75.227427435704 27.647001520431516 C75.1142413666076 27.670734143418738, 75.0010552975112 27.69446676640596, 74.82297295140367 27.731806707748476 M75.227427435704 27.647001520431516 C75.06644517630295 27.680755950640965, 74.90546291690188 27.714510380850413, 74.82297295140367 27.731806707748476 M74.82297295140367 27.731806707748476 C74.71525550812717 27.74523367305036, 74.60753806485066 27.758660638352247, 74.41289672736166 27.78292265576821 M74.82297295140367 27.731806707748476 C74.66165430311611 27.7519150562872, 74.50033565482853 27.772023404825926, 74.41289672736166 27.78292265576821 M74.41289672736166 27.78292265576821 C74.27869323765147 27.78847335316128, 74.1444897479413 27.794024050554345, 74 27.800000190734863 M74.41289672736166 27.78292265576821 C74.28622542942766 27.78816181940499, 74.15955413149368 27.79340098304177, 74 27.800000190734863 M74 27.800000190734863 C74 27.800000190734863, 74 27.800000190734863, 74 27.800000190734863 M74 27.800000190734863 C74 27.800000190734863, 74 27.800000190734863, 74 27.800000190734863 M74 27.800000190734863 C41.731006105780814 27.800000190734863, 9.462012211561628 27.800000190734863, -74 27.800000190734863 M74 27.800000190734863 C40.12016648992624 27.800000190734863, 6.240332979852482 27.800000190734863, -74 27.800000190734863 M-74 27.800000190734863 C-74 27.800000190734863, -74 27.800000190734863, -74 27.800000190734863 M-74 27.800000190734863 C-74 27.800000190734863, -74 27.800000190734863, -74 27.800000190734863 M-74 27.800000190734863 C-74.09038654109321 27.796261775742096, -74.1807730821864 27.792523360749325, -74.41289672736166 27.78292265576821 M-74 27.800000190734863 C-74.13121519995788 27.7945730899202, -74.26243039991577 27.78914598910553, -74.41289672736166 27.78292265576821 M-74.41289672736166 27.78292265576821 C-74.51869364603301 27.7697350836087, -74.62449056470437 27.75654751144919, -74.82297295140367 27.731806707748476 M-74.41289672736166 27.78292265576821 C-74.55249774175266 27.76552140747155, -74.69209875614365 27.74812015917489, -74.82297295140367 27.731806707748476 M-74.82297295140367 27.731806707748476 C-74.9205093943629 27.71135546629495, -75.01804583732212 27.690904224841425, -75.227427435704 27.647001520431516 M-74.82297295140367 27.731806707748476 C-74.97990680313701 27.698901139361364, -75.13684065487035 27.665995570974253, -75.227427435704 27.647001520431516 M-75.227427435704 27.647001520431516 C-75.35378444019489 27.60938341032017, -75.48014144468576 27.57176530020882, -75.62349734602341 27.529086399238036 M-75.227427435704 27.647001520431516 C-75.37324420375742 27.603589987696814, -75.51906097181086 27.560178454962113, -75.62349734602341 27.529086399238036 M-75.62349734602341 27.529086399238036 C-75.7380338911785 27.484394100633278, -75.8525704363336 27.439701802028523, -76.00847712326485 27.37886682401015 M-75.62349734602341 27.529086399238036 C-75.75505508917297 27.47775240856592, -75.88661283232253 27.4264184178938, -76.00847712326485 27.37886682401015 M-76.00847712326485 27.37886682401015 C-76.1107707179997 27.32885853277167, -76.21306431273455 27.27885024153319, -76.37973696518537 27.19736894676731 M-76.00847712326485 27.37886682401015 C-76.15250785786367 27.30845448840126, -76.29653859246247 27.23804215279237, -76.37973696518537 27.19736894676731 M-76.37973696518537 27.19736894676731 C-76.4648233176824 27.146668485517765, -76.54990967017943 27.09596802426822, -76.73474079061214 26.985832582047507 M-76.37973696518537 27.19736894676731 C-76.46968528007734 27.14377138476345, -76.5596335949693 27.090173822759592, -76.73474079061214 26.985832582047507 M-76.73474079061214 26.985832582047507 C-76.83649250316199 26.91318325566105, -76.93824421571183 26.840533929274592, -77.07106356344833 26.745702737716833 M-76.73474079061214 26.985832582047507 C-76.80411236117904 26.936302232672926, -76.87348393174595 26.886771883298344, -77.07106356344833 26.745702737716833 M-77.07106356344833 26.745702737716833 C-77.18848312567158 26.646253441450067, -77.30590268789483 26.546804145183305, -77.3864078581287 26.478619744100524 M-77.07106356344833 26.745702737716833 C-77.17912807764526 26.65417676295752, -77.2871925918422 26.56265078819821, -77.3864078581287 26.478619744100524 M-77.3864078581287 26.478619744100524 C-77.49938690272229 26.36564069950694, -77.61236594731588 26.252661654913354, -77.67861955336566 26.18640804886357 M-77.3864078581287 26.478619744100524 C-77.49273624361614 26.37229135861309, -77.59906462910358 26.265962973125657, -77.67861955336566 26.18640804886357 M-77.67861955336566 26.18640804886357 C-77.76095310593627 26.089197007035853, -77.84328665850687 25.99198596520814, -77.94570254698196 25.871063754183204 M-77.67861955336566 26.18640804886357 C-77.77712101612448 26.070107591548457, -77.8756224788833 25.953807134233344, -77.94570254698196 25.871063754183204 M-77.94570254698196 25.871063754183204 C-78.0154972097515 25.773310246795376, -78.08529187252103 25.675556739407543, -78.18583239131264 25.534740981346996 M-77.94570254698196 25.871063754183204 C-78.01696507440079 25.77125437443859, -78.08822760181961 25.671444994693974, -78.18583239131264 25.534740981346996 M-78.18583239131264 25.534740981346996 C-78.25904718348093 25.411870706385084, -78.33226197564922 25.28900043142317, -78.39736875603245 25.179737155920233 M-78.18583239131264 25.534740981346996 C-78.23846403831264 25.446413680987735, -78.29109568531265 25.358086380628478, -78.39736875603245 25.179737155920233 M-78.39736875603245 25.179737155920233 C-78.46054847319186 25.050500978828175, -78.52372819035128 24.921264801736115, -78.57886663327528 24.808477313999713 M-78.39736875603245 25.179737155920233 C-78.44792040806327 25.076332098919643, -78.49847206009407 24.972927041919053, -78.57886663327528 24.808477313999713 M-78.57886663327528 24.808477313999713 C-78.61373178323912 24.71912559238684, -78.64859693320295 24.629773870773967, -78.72908620850318 24.42349753675828 M-78.57886663327528 24.808477313999713 C-78.63311712786823 24.669445211878873, -78.6873676224612 24.530413109758033, -78.72908620850318 24.42349753675828 M-78.72908620850318 24.42349753675828 C-78.77319610509622 24.275335005854913, -78.81730600168925 24.12717247495155, -78.84700132969665 24.027427626438858 M-78.72908620850318 24.42349753675828 C-78.75671279850673 24.330701456710294, -78.78433938851028 24.237905376662308, -78.84700132969665 24.027427626438858 M-78.84700132969665 24.027427626438858 C-78.87002541639109 23.91762072187204, -78.89304950308552 23.807813817305224, -78.93180651701361 23.622973142138534 M-78.84700132969665 24.027427626438858 C-78.87510275362757 23.893405790232038, -78.90320417755848 23.759383954025214, -78.93180651701361 23.622973142138534 M-78.93180651701361 23.622973142138534 C-78.94874727746243 23.48706637827364, -78.96568803791124 23.35115961440874, -78.98292246503335 23.212896918096526 M-78.93180651701361 23.622973142138534 C-78.94439992346443 23.52194290079027, -78.95699332991526 23.420912659442003, -78.98292246503335 23.212896918096526 M-78.98292246503335 23.212896918096526 C-78.98910189666842 23.0634920359484, -78.99528132830348 22.914087153800278, -79 22.800000190734863 M-78.98292246503335 23.212896918096526 C-78.9864823803156 23.12682610210346, -78.99004229559787 23.040755286110393, -79 22.800000190734863 M-79 22.800000190734863 C-79 22.800000190734863, -79 22.800000190734863, -79 22.800000190734863 M-79 22.800000190734863 C-79 22.800000190734863, -79 22.800000190734863, -79 22.800000190734863 M-79 22.800000190734863 C-79 10.679788964152017, -79 -1.440422262430829, -79 -22.800000190734863 M-79 22.800000190734863 C-79 8.725535245345139, -79 -5.348929700044586, -79 -22.800000190734863 M-79 -22.800000190734863 C-79 -22.800000190734863, -79 -22.800000190734863, -79 -22.800000190734863 M-79 -22.800000190734863 C-79 -22.800000190734863, -79 -22.800000190734863, -79 -22.800000190734863 M-79 -22.800000190734863 C-78.99605825610934 -22.895302771331764, -78.99211651221866 -22.990605351928664, -78.98292246503335 -23.212896918096522 M-79 -22.800000190734863 C-78.99374199718973 -22.95130474875362, -78.98748399437947 -23.102609306772376, -78.98292246503335 -23.212896918096522 M-78.98292246503335 -23.212896918096522 C-78.96349534332576 -23.368750443708123, -78.94406822161815 -23.524603969319724, -78.93180651701361 -23.622973142138534 M-78.98292246503335 -23.212896918096522 C-78.96483387627669 -23.35801210157545, -78.94674528752002 -23.503127285054383, -78.93180651701361 -23.622973142138534 M-78.93180651701361 -23.622973142138534 C-78.91214836965598 -23.716727145913254, -78.89249022229835 -23.81048114968797, -78.84700132969665 -24.027427626438858 M-78.93180651701361 -23.622973142138534 C-78.89979800126773 -23.77562875365006, -78.86778948552184 -23.928284365161584, -78.84700132969665 -24.027427626438858 M-78.84700132969665 -24.027427626438858 C-78.81701919307686 -24.12813584809859, -78.78703705645707 -24.228844069758328, -78.72908620850318 -24.42349753675828 M-78.84700132969665 -24.027427626438858 C-78.82106080204736 -24.11456032287089, -78.79512027439804 -24.201693019302926, -78.72908620850318 -24.42349753675828 M-78.72908620850318 -24.42349753675828 C-78.68673994598244 -24.53202170671088, -78.64439368346171 -24.640545876663477, -78.57886663327528 -24.80847731399971 M-78.72908620850318 -24.42349753675828 C-78.6986802042962 -24.50142144719838, -78.6682742000892 -24.579345357638477, -78.57886663327528 -24.80847731399971 M-78.57886663327528 -24.80847731399971 C-78.52838606094183 -24.91173697515542, -78.47790548860837 -25.014996636311135, -78.39736875603245 -25.17973715592023 M-78.57886663327528 -24.80847731399971 C-78.50713628362936 -24.955204089403345, -78.43540593398345 -25.101930864806985, -78.39736875603245 -25.17973715592023 M-78.39736875603245 -25.17973715592023 C-78.34877773669841 -25.261283408111055, -78.30018671736435 -25.34282966030188, -78.18583239131264 -25.534740981346996 M-78.39736875603245 -25.17973715592023 C-78.34817218225375 -25.262299659594067, -78.29897560847505 -25.344862163267905, -78.18583239131264 -25.534740981346996 M-78.18583239131264 -25.534740981346996 C-78.13439298709932 -25.606786349578044, -78.08295358288599 -25.678831717809093, -77.94570254698196 -25.871063754183204 M-78.18583239131264 -25.534740981346996 C-78.11147146939928 -25.638889932587386, -78.03711054748592 -25.743038883827772, -77.94570254698196 -25.871063754183204 M-77.94570254698196 -25.871063754183204 C-77.84222830915456 -25.993235555927143, -77.73875407132718 -26.115407357671078, -77.67861955336566 -26.18640804886357 M-77.94570254698196 -25.871063754183204 C-77.88307628151456 -25.94500644609662, -77.82045001604716 -26.01894913801004, -77.67861955336566 -26.18640804886357 M-77.67861955336566 -26.18640804886357 C-77.60545472468523 -26.259572877544002, -77.5322898960048 -26.332737706224435, -77.3864078581287 -26.47861974410052 M-77.67861955336566 -26.18640804886357 C-77.57077748012738 -26.29425012210185, -77.4629354068891 -26.402092195340128, -77.3864078581287 -26.47861974410052 M-77.3864078581287 -26.47861974410052 C-77.30310610590772 -26.549172729304257, -77.21980435368671 -26.619725714507997, -77.07106356344833 -26.74570273771683 M-77.3864078581287 -26.47861974410052 C-77.29858393050938 -26.55300281649283, -77.21076000289005 -26.627385888885136, -77.07106356344833 -26.74570273771683 M-77.07106356344833 -26.74570273771683 C-76.96061059407688 -26.82456464206354, -76.85015762470542 -26.90342654641025, -76.73474079061214 -26.985832582047507 M-77.07106356344833 -26.74570273771683 C-76.98543720369992 -26.806838783496886, -76.8998108439515 -26.867974829276946, -76.73474079061214 -26.985832582047507 M-76.73474079061214 -26.985832582047507 C-76.63557819723427 -27.04492066227911, -76.53641560385638 -27.104008742510718, -76.37973696518537 -27.19736894676731 M-76.73474079061214 -26.985832582047507 C-76.60505131944889 -27.063110733175396, -76.47536184828563 -27.14038888430328, -76.37973696518537 -27.19736894676731 M-76.37973696518537 -27.19736894676731 C-76.29162404197334 -27.2404447301268, -76.20351111876128 -27.28352051348629, -76.00847712326485 -27.37886682401015 M-76.37973696518537 -27.19736894676731 C-76.26520734705035 -27.25335906534682, -76.15067772891531 -27.309349183926333, -76.00847712326485 -27.37886682401015 M-76.00847712326485 -27.37886682401015 C-75.88242978456147 -27.42805064819516, -75.75638244585808 -27.477234472380175, -75.62349734602341 -27.529086399238036 M-76.00847712326485 -27.37886682401015 C-75.89508644599624 -27.42311200357814, -75.78169576872763 -27.46735718314613, -75.62349734602341 -27.529086399238036 M-75.62349734602341 -27.529086399238036 C-75.47537704592816 -27.57318372317477, -75.32725674583288 -27.6172810471115, -75.227427435704 -27.647001520431516 M-75.62349734602341 -27.529086399238036 C-75.46513215840551 -27.57623375833869, -75.3067669707876 -27.623381117439344, -75.227427435704 -27.647001520431516 M-75.227427435704 -27.647001520431516 C-75.08294238866222 -27.677296848965394, -74.93845734162042 -27.707592177499272, -74.82297295140367 -27.731806707748476 M-75.227427435704 -27.647001520431516 C-75.08912900520062 -27.675999651889423, -74.95083057469724 -27.70499778334733, -74.82297295140367 -27.731806707748476 M-74.82297295140367 -27.731806707748476 C-74.67146701104313 -27.75069190351968, -74.51996107068261 -27.76957709929089, -74.41289672736167 -27.78292265576821 M-74.82297295140367 -27.731806707748476 C-74.67630174823773 -27.75008925415686, -74.5296305450718 -27.76837180056524, -74.41289672736167 -27.78292265576821 M-74.41289672736167 -27.78292265576821 C-74.27409755090464 -27.78866343217115, -74.13529837444761 -27.794404208574083, -74 -27.800000190734863 M-74.41289672736167 -27.78292265576821 C-74.33028412947611 -27.786339538091525, -74.24767153159054 -27.78975642041484, -74 -27.800000190734863 M-74 -27.800000190734863 C-74 -27.800000190734863, -74 -27.800000190734863, -74 -27.800000190734863 M-74 -27.800000190734863 C-74 -27.800000190734863, -74 -27.800000190734863, -74 -27.800000190734863"></path></g><g transform="translate(-64, -12.800000190734863)" style="" class="label"><rect></rect><foreignObject height="25.600000381469727" width="128"><div style="display: table-cell; white-space: nowrap; line-height: 1.5; max-width: 200px; text-align: center;" xmlns="http://www.w3.org/1999/xhtml"><span class="nodeLabel"><p>返回完整消息列表</p></span></div></foreignObject></g></g></g></g></g></svg>